<?xml version="1.0" encoding="iso-8859-1"?>
<!-- Generator: Adobe Illustrator 18.0.0, SVG Export Plug-In . SVG Version: 6.00 Build 0)  -->
<svg version="1.1" xmlns="http://www.w3.org/2000/svg" xmlns:xlink="http://www.w3.org/1999/xlink" x="0px" y="0px"
	 viewBox="0 0 100 100" style="enable-background:new 0 0 100 100;" xml:space="preserve">
<g id="turf-centroid">
	<circle cx="50.178" cy="49.646" r="7.796"/>
	<path d="M85.342,21.482c-1.104,0-2-0.896-2-2v-3h-3c-1.104,0-2-0.896-2-2s0.896-2,2-2h5c1.104,0,2,0.896,2,2v5
		C87.342,20.587,86.446,21.482,85.342,21.482z"/>
	<path d="M71.724,16.482h-8.618c-1.104,0-2-0.896-2-2s0.896-2,2-2h8.618c1.104,0,2,0.896,2,2S72.828,16.482,71.724,16.482z"/>
	<path d="M54.487,16.482H45.87c-1.104,0-2-0.896-2-2s0.896-2,2-2h8.618c1.104,0,2,0.896,2,2S55.592,16.482,54.487,16.482z"/>
	<path d="M37.252,16.482h-8.618c-1.104,0-2-0.896-2-2s0.896-2,2-2h8.618c1.104,0,2,0.896,2,2S38.356,16.482,37.252,16.482z"/>
	<path d="M15.016,21.482c-1.104,0-2-0.896-2-2v-5c0-1.104,0.896-2,2-2h5c1.104,0,2,0.896,2,2s-0.896,2-2,2h-3v3
		C17.016,20.587,16.12,21.482,15.016,21.482z"/>
	<path d="M15.016,73.19c-1.104,0-2-0.896-2-2v-8.618c0-1.104,0.896-2,2-2s2,0.896,2,2v8.618C17.016,72.295,16.12,73.19,15.016,73.19
		z"/>
	<path d="M15.016,55.954c-1.104,0-2-0.896-2-2v-8.618c0-1.104,0.896-2,2-2s2,0.896,2,2v8.618
		C17.016,55.059,16.12,55.954,15.016,55.954z"/>
	<path d="M15.016,38.719c-1.104,0-2-0.896-2-2v-8.618c0-1.104,0.896-2,2-2s2,0.896,2,2v8.618
		C17.016,37.823,16.12,38.719,15.016,38.719z"/>
	<path d="M20.016,86.809h-5c-1.104,0-2-0.896-2-2v-5c0-1.104,0.896-2,2-2s2,0.896,2,2v3h3c1.104,0,2,0.896,2,2
		S21.12,86.809,20.016,86.809z"/>
	<path d="M71.723,86.809h-8.617c-1.104,0-2-0.896-2-2s0.896-2,2-2h8.617c1.104,0,2,0.896,2,2S72.827,86.809,71.723,86.809z"/>
	<path d="M54.487,86.809h-8.618c-1.104,0-2-0.896-2-2s0.896-2,2-2h8.618c1.104,0,2,0.896,2,2S55.592,86.809,54.487,86.809z"/>
	<path d="M37.251,86.809h-8.618c-1.104,0-2-0.896-2-2s0.896-2,2-2h8.618c1.104,0,2,0.896,2,2S38.356,86.809,37.251,86.809z"/>
	<path d="M85.342,86.809h-5c-1.104,0-2-0.896-2-2s0.896-2,2-2h3v-3c0-1.104,0.896-2,2-2s2,0.896,2,2v5
		C87.342,85.913,86.446,86.809,85.342,86.809z"/>
	<path d="M85.342,73.19c-1.104,0-2-0.896-2-2v-8.618c0-1.104,0.896-2,2-2s2,0.896,2,2v8.618
		C87.342,72.295,86.446,73.19,85.342,73.19z"/>
	<path d="M85.342,55.954c-1.104,0-2-0.896-2-2v-8.618c0-1.104,0.896-2,2-2s2,0.896,2,2v8.618
		C87.342,55.059,86.446,55.954,85.342,55.954z"/>
	<path d="M85.342,38.719c-1.104,0-2-0.896-2-2v-8.618c0-1.104,0.896-2,2-2s2,0.896,2,2v8.618
		C87.342,37.823,86.446,38.719,85.342,38.719z"/>
</g>
<g id="Layer_1">
</g>
</svg>
