<?xml version="1.0" encoding="iso-8859-1"?>
<!-- Generator: Adobe Illustrator 18.0.0, SVG Export Plug-In . SVG Version: 6.00 Build 0)  -->
<svg version="1.1" xmlns="http://www.w3.org/2000/svg" xmlns:xlink="http://www.w3.org/1999/xlink" x="0px" y="0px"
	 viewBox="0 0 100 100" style="enable-background:new 0 0 100 100;" xml:space="preserve">
<g id="turf-bezzier">
	<circle cx="40.274" cy="39.666" r="4.763"/>
	<path d="M12.729,63.898l-5.714,5.6c-0.789,0.773-0.802,2.04-0.028,2.828c0.392,0.4,0.91,0.601,1.428,0.601
		c0.505,0,1.011-0.19,1.4-0.571l5.714-5.6c0.789-0.773,0.802-2.04,0.028-2.828C14.784,63.137,13.518,63.127,12.729,63.898z"/>
	<path d="M24.156,52.699l-5.714,5.6c-0.789,0.773-0.802,2.04-0.028,2.828c0.392,0.4,0.91,0.601,1.428,0.601
		c0.505,0,1.011-0.19,1.4-0.571l5.714-5.6c0.789-0.773,0.802-2.04,0.028-2.828C26.212,51.938,24.945,51.928,24.156,52.699z"/>
	<path d="M47.017,35.834c0.048-0.027,0.097-0.053,0.145-0.08l2.648-2.595c0.789-0.773,0.802-2.039,0.028-2.828
		c-0.773-0.789-2.039-0.802-2.828-0.028l-2.762,2.707C45.396,33.698,46.353,34.67,47.017,35.834z"/>
	<path d="M54.124,28.131c0.505,0,1.011-0.19,1.399-0.571l5.714-5.599c0.789-0.773,0.802-2.04,0.029-2.829
		c-0.773-0.79-2.041-0.802-2.828-0.029l-5.714,5.599c-0.789,0.773-0.802,2.04-0.029,2.829C53.087,27.93,53.605,28.131,54.124,28.131
		z"/>
	<path d="M65.552,16.932c0.505,0,1.011-0.19,1.399-0.572l5.714-5.6c0.789-0.773,0.802-2.039,0.029-2.828
		c-0.772-0.788-2.041-0.802-2.828-0.028l-5.714,5.6c-0.789,0.773-0.802,2.039-0.029,2.828
		C64.515,16.731,65.033,16.932,65.552,16.932z"/>
	<path d="M92.917,42.969C80.419,30.471,61.223,27.94,47.162,35.754l-0.121,0.119c0.632,1.123,0.997,2.415,0.997,3.793
		c0,0.072-0.009,0.142-0.011,0.214c12.618-7.75,30.503-5.642,42.062,5.916c0.781,0.781,2.047,0.781,2.828,0
		C93.698,45.016,93.698,43.75,92.917,42.969z"/>
	<path d="M47.041,35.873l0.121-0.119c-0.048,0.027-0.097,0.053-0.145,0.08C47.025,35.847,47.033,35.86,47.041,35.873z"/>
	<path d="M42.688,90.66c-6.166-6.166-9.561-14.437-9.561-23.29c0-7.347,2.346-14.29,6.666-19.965
		c-1.252-0.077-2.422-0.45-3.445-1.053c-0.172-0.101-0.342-0.206-0.505-0.32c-0.944-0.659-1.733-1.522-2.307-2.525L29.87,47.1
		c-0.789,0.773-0.802,2.04-0.029,2.829c0.392,0.399,0.91,0.6,1.429,0.6c0.505,0,1.011-0.19,1.4-0.571l1.672-1.638
		c-3.398,5.669-5.214,12.206-5.214,19.051c0,9.922,3.812,19.197,10.733,26.118c0.39,0.391,0.902,0.586,1.414,0.586
		s1.024-0.195,1.414-0.586C43.47,92.707,43.47,91.441,42.688,90.66z"/>
	<path d="M42.097,39.228c0.196,0.062,0.397,0.102,0.6,0.102c0.505,0,1.011-0.19,1.4-0.572l0.659-0.646
		c-0.081-0.235-0.181-0.458-0.296-0.674C43.649,37.996,42.862,38.594,42.097,39.228z"/>
</g>
<g id="Layer_1">
</g>
</svg>
