<?xml version="1.0" encoding="iso-8859-1"?>
<!-- Generator: Adobe Illustrator 18.0.0, SVG Export Plug-In . SVG Version: 6.00 Build 0)  -->
<svg version="1.1" xmlns="http://www.w3.org/2000/svg" xmlns:xlink="http://www.w3.org/1999/xlink" x="0px" y="0px"
	 viewBox="0 0 100 100" style="enable-background:new 0 0 100 100;" xml:space="preserve">
<g id="turf-center">
	<circle cx="52.178" cy="51.646" r="7.796"/>
	<path d="M56.257,97.633c-0.091,0-0.183-0.006-0.274-0.019c-3.411-0.468-6.71-1.466-9.804-2.968
		c-0.994-0.481-1.409-1.679-0.926-2.672c0.482-0.994,1.679-1.409,2.672-0.926c2.714,1.316,5.607,2.192,8.601,2.603
		c1.095,0.149,1.86,1.158,1.71,2.253C58.098,96.906,57.24,97.633,56.257,97.633z"/>
	<path d="M65.863,97.443c-0.952,0-1.795-0.681-1.967-1.65c-0.193-1.088,0.531-2.126,1.619-2.318c2.971-0.527,5.827-1.518,8.49-2.943
		c0.976-0.521,2.186-0.154,2.707,0.818c0.521,0.974,0.155,2.187-0.818,2.707c-3.036,1.626-6.293,2.755-9.68,3.355
		C66.097,97.434,65.979,97.443,65.863,97.443z"/>
	<path d="M39.165,89.348c-0.498,0-0.997-0.186-1.385-0.558c-2.484-2.385-4.566-5.129-6.19-8.156
		c-0.522-0.974-0.157-2.186,0.817-2.708c0.974-0.521,2.186-0.155,2.708,0.817c1.426,2.657,3.255,5.067,5.436,7.162
		c0.797,0.765,0.822,2.031,0.057,2.828C40.215,89.142,39.691,89.348,39.165,89.348z"/>
	<path d="M82.615,88.486c-0.499,0-0.999-0.186-1.387-0.559c-0.796-0.767-0.82-2.032-0.055-2.828c2.099-2.181,3.831-4.66,5.148-7.369
		c0.484-0.993,1.68-1.406,2.674-0.924c0.993,0.483,1.406,1.681,0.924,2.674c-1.502,3.086-3.475,5.91-5.863,8.393
		C83.664,88.281,83.14,88.486,82.615,88.486z"/>
	<path d="M30.193,72.605c-0.951,0-1.793-0.68-1.966-1.648c-0.34-1.906-0.513-3.853-0.513-5.784c0-1.487,0.101-2.985,0.3-4.45
		c0.149-1.094,1.16-1.86,2.251-1.712c1.095,0.148,1.861,1.156,1.712,2.251c-0.175,1.287-0.264,2.604-0.264,3.911
		c0,1.696,0.152,3.406,0.451,5.081c0.194,1.087-0.53,2.126-1.617,2.32C30.428,72.596,30.31,72.605,30.193,72.605z"/>
	<path d="M90.917,71.407c-0.091,0-0.183-0.006-0.275-0.019c-1.095-0.15-1.859-1.16-1.709-2.254c0.18-1.306,0.271-2.639,0.27-3.961
		c0-1.688-0.147-3.382-0.438-5.033c-0.191-1.088,0.535-2.125,1.623-2.316c1.095-0.193,2.125,0.536,2.316,1.623
		c0.331,1.88,0.499,3.806,0.499,5.726c0.001,1.504-0.103,3.021-0.307,4.507C92.758,70.682,91.9,71.407,90.917,71.407z"/>
	<path d="M32.771,53.788c-0.292,0-0.589-0.063-0.87-0.2c-0.994-0.48-1.41-1.677-0.929-2.671c1.496-3.089,3.463-5.917,5.849-8.404
		c0.764-0.797,2.031-0.824,2.828-0.059c0.797,0.765,0.824,2.031,0.059,2.828c-2.094,2.184-3.822,4.667-5.135,7.378
		C34.227,53.373,33.514,53.788,32.771,53.788z"/>
	<path d="M87.595,52.706c-0.715,0-1.406-0.384-1.766-1.059c-1.422-2.66-3.246-5.073-5.424-7.171
		c-0.796-0.766-0.819-2.032-0.053-2.828s2.034-0.818,2.828-0.052c2.479,2.389,4.558,5.137,6.176,8.167
		c0.521,0.974,0.153,2.186-0.821,2.707C88.235,52.63,87.912,52.706,87.595,52.706z"/>
	<path d="M45.92,40.077c-0.713,0-1.402-0.382-1.763-1.053c-0.523-0.973-0.159-2.186,0.814-2.709c3.032-1.63,6.286-2.765,9.674-3.372
		c1.081-0.197,2.126,0.529,2.321,1.616c0.194,1.087-0.528,2.126-1.616,2.322c-2.971,0.533-5.825,1.528-8.484,2.958
		C46.564,40,46.239,40.077,45.92,40.077z"/>
	<path d="M73.042,39.323l-0.118-0.058c-2.693-1.301-5.589-2.172-8.581-2.577c-1.095-0.148-1.862-1.155-1.715-2.25
		c0.148-1.096,1.163-1.858,2.25-1.714c3.412,0.461,6.713,1.454,9.811,2.951l-0.774,1.848L73.042,39.323z"/>
	<path d="M34.043,10.779c-0.561,0-1.119-0.234-1.514-0.692c-0.722-0.836-0.63-2.099,0.205-2.821l3.783-3.27
		c0.536-0.462,1.276-0.608,1.946-0.382l4.739,1.594c1.047,0.352,1.61,1.486,1.258,2.533c-0.352,1.046-1.486,1.611-2.533,1.258
		l-3.657-1.23l-2.919,2.523C34.972,10.619,34.506,10.779,34.043,10.779z"/>
	<path d="M20.148,22.79c-0.561,0-1.119-0.234-1.514-0.692c-0.722-0.836-0.63-2.099,0.205-2.821l6.947-6.006
		c0.836-0.723,2.098-0.631,2.821,0.205c0.722,0.836,0.63,2.099-0.205,2.821l-6.947,6.006C21.077,22.63,20.611,22.79,20.148,22.79z"
		/>
	<path d="M10.003,37.031c-1,0-1.863-0.748-1.983-1.765l-0.589-4.965c-0.079-0.659,0.176-1.314,0.678-1.749l3.782-3.27
		c0.836-0.723,2.099-0.631,2.821,0.205c0.722,0.836,0.63,2.099-0.205,2.821l-2.979,2.575l0.464,3.911
		c0.13,1.097-0.654,2.091-1.751,2.222C10.162,37.026,10.082,37.031,10.003,37.031z"/>
	<path d="M12.352,56.816c-1,0-1.863-0.747-1.983-1.765L9.194,45.16c-0.13-1.097,0.653-2.092,1.75-2.222
		c1.098-0.133,2.092,0.654,2.222,1.75l1.174,9.893c0.13,1.097-0.653,2.091-1.75,2.222C12.51,56.812,12.43,56.816,12.352,56.816z"/>
	<path d="M19.098,72.146c-0.063,0-0.126-0.003-0.191-0.009l-4.978-0.471c-0.938-0.089-1.687-0.82-1.797-1.756l-0.589-4.965
		c-0.13-1.097,0.653-2.092,1.75-2.222c1.093-0.117,2.091,0.653,2.221,1.751l0.399,3.361l3.371,0.318
		c1.1,0.104,1.907,1.08,1.803,2.18C20.988,71.369,20.117,72.146,19.098,72.146z"/>
	<path d="M52.177,75.275c-0.062,0-0.126-0.003-0.19-0.009l-8.27-0.782c-1.1-0.104-1.907-1.08-1.803-2.18s1.07-1.905,2.18-1.803
		l8.27,0.782c1.1,0.104,1.906,1.08,1.803,2.18C54.068,74.499,53.196,75.275,52.177,75.275z"/>
	<path d="M35.638,73.711c-0.063,0-0.127-0.003-0.191-0.009l-8.27-0.782c-1.1-0.104-1.907-1.08-1.803-2.18
		c0.104-1.1,1.07-1.901,2.18-1.803l8.27,0.782c1.1,0.104,1.907,1.08,1.803,2.18C37.528,72.935,36.657,73.711,35.638,73.711z"/>
	<path d="M65.425,76.529c-0.063,0-0.127-0.003-0.19-0.009l-4.979-0.471c-1.1-0.104-1.906-1.08-1.803-2.18
		c0.104-1.099,1.055-1.907,2.18-1.803l3.228,0.306l0.717-3.161c0.244-1.077,1.317-1.756,2.392-1.509
		c1.078,0.243,1.753,1.314,1.509,2.392l-1.104,4.876C67.165,75.89,66.35,76.529,65.425,76.529z"/>
	<path d="M68.603,62.503c-0.146,0-0.295-0.016-0.444-0.05c-1.077-0.244-1.752-1.314-1.508-2.393l2.073-9.15
		c0.244-1.077,1.314-1.75,2.393-1.509c1.077,0.244,1.752,1.315,1.508,2.393l-2.073,9.15C70.341,61.873,69.516,62.503,68.603,62.503z
		"/>
	<path d="M72.749,44.203c-0.146,0-0.295-0.016-0.444-0.05c-1.077-0.244-1.752-1.315-1.508-2.393l2.073-9.15
		c0.244-1.077,1.317-1.752,2.392-1.509c1.078,0.244,1.753,1.315,1.509,2.393l-2.073,9.15C74.487,43.573,73.662,44.203,72.749,44.203
		z"/>
	<path d="M76.896,25.902c-0.146,0-0.295-0.016-0.444-0.05c-1.077-0.244-1.752-1.315-1.508-2.393l0.706-3.114l-3.027-1.019
		c-1.047-0.352-1.61-1.486-1.258-2.533c0.353-1.046,1.483-1.611,2.533-1.258l4.739,1.594c0.973,0.327,1.54,1.337,1.312,2.338
		l-1.105,4.876C78.634,25.272,77.809,25.902,76.896,25.902z"/>
	<path d="M63.027,15.989c-0.211,0-0.426-0.034-0.638-0.105l-10.232-3.442c-1.047-0.352-1.61-1.486-1.258-2.533
		c0.353-1.046,1.483-1.611,2.533-1.258l10.232,3.442c1.047,0.352,1.61,1.486,1.258,2.533C64.642,15.461,63.863,15.989,63.027,15.989
		z"/>
</g>
<g id="Layer_1">
</g>
</svg>
