<?xml version="1.0" encoding="iso-8859-1"?>
<!-- Generator: Adobe Illustrator 18.0.0, SVG Export Plug-In . SVG Version: 6.00 Build 0)  -->
<svg version="1.1" xmlns="http://www.w3.org/2000/svg" xmlns:xlink="http://www.w3.org/1999/xlink" x="0px" y="0px"
	 viewBox="0 0 100 100" style="enable-background:new 0 0 100 100;" xml:space="preserve">
<g id="turf-convex">
	<circle cx="13.162" cy="54.683" r="5.824"/>
	<circle cx="51.116" cy="15.612" r="5.824"/>
	<circle cx="87.954" cy="83.706" r="5.824"/>
	<circle cx="50" cy="50.218" r="5.824"/>
	<path d="M73.939,80.269c-0.241,0-0.485-0.044-0.724-0.137l-9.353-3.629c-1.029-0.399-1.54-1.558-1.141-2.588
		c0.398-1.03,1.56-1.542,2.588-1.141l9.353,3.629c1.029,0.399,1.54,1.558,1.141,2.588C75.497,79.783,74.74,80.269,73.939,80.269z"/>
	<path d="M55.234,73.01c-0.241,0-0.485-0.044-0.724-0.137l-9.353-3.629c-1.03-0.399-1.541-1.558-1.141-2.588
		c0.4-1.029,1.561-1.541,2.588-1.141l9.353,3.629c1.029,0.399,1.54,1.558,1.141,2.588C56.792,72.524,56.035,73.01,55.234,73.01z"/>
	<path d="M36.528,65.751c-0.241,0-0.485-0.044-0.723-0.137l-9.353-3.629c-1.03-0.399-1.541-1.558-1.141-2.588
		c0.4-1.03,1.56-1.542,2.588-1.141l9.353,3.629c1.03,0.399,1.541,1.558,1.141,2.588C38.085,65.266,37.329,65.751,36.528,65.751z"/>
	<path d="M22.843,46.717c-0.502,0-1.005-0.188-1.394-0.565c-0.792-0.77-0.811-2.036-0.041-2.828l6.197-6.379
		c0.771-0.792,2.037-0.81,2.828-0.041c0.792,0.77,0.811,2.036,0.041,2.828l-6.197,6.379C23.886,46.514,23.365,46.717,22.843,46.717z
		"/>
	<path d="M35.238,33.958c-0.502,0-1.005-0.188-1.394-0.565c-0.792-0.77-0.811-2.036-0.041-2.828L40,24.185
		c0.771-0.792,2.037-0.81,2.828-0.041c0.792,0.77,0.811,2.036,0.041,2.828l-6.197,6.379C36.28,33.755,35.759,33.958,35.238,33.958z"
		/>
	<path d="M80.994,72.837c-0.711,0-1.399-0.379-1.761-1.048l-4.583-8.471c-0.525-0.972-0.164-2.186,0.807-2.711
		c0.972-0.528,2.186-0.165,2.711,0.807l4.583,8.471c0.525,0.972,0.164,2.186-0.807,2.711C81.642,72.76,81.315,72.837,80.994,72.837z
		"/>
	<path d="M71.828,55.895c-0.711,0-1.399-0.379-1.761-1.049l-4.582-8.471c-0.525-0.972-0.164-2.185,0.808-2.711
		c0.97-0.526,2.185-0.164,2.71,0.808l4.582,8.472c0.525,0.972,0.164,2.185-0.808,2.71C72.476,55.817,72.149,55.895,71.828,55.895z"
		/>
	<path d="M62.663,38.953c-0.711,0-1.399-0.38-1.761-1.049l-4.583-8.471c-0.525-0.972-0.164-2.185,0.807-2.711
		c0.972-0.526,2.187-0.164,2.711,0.808L64.42,36c0.525,0.972,0.164,2.185-0.807,2.711C63.311,38.875,62.984,38.953,62.663,38.953z"
		/>
</g>
<g id="Layer_1">
</g>
</svg>
