<?xml version="1.0" encoding="iso-8859-1"?>
<!-- Generator: Adobe Illustrator 18.0.0, SVG Export Plug-In . SVG Version: 6.00 Build 0)  -->
<svg version="1.1" xmlns="http://www.w3.org/2000/svg" xmlns:xlink="http://www.w3.org/1999/xlink" x="0px" y="0px"
	 viewBox="0 0 100 100" style="enable-background:new 0 0 100 100;" xml:space="preserve">
<g id="turf-envelope">
	<circle cx="13.162" cy="54.683" r="5.824"/>
	<circle cx="51.116" cy="15.612" r="5.824"/>
	<circle cx="87.954" cy="83.706" r="5.824"/>
	<path d="M36.674,82h-9.256c-1.104,0-2,0.896-2,2s0.896,2,2,2h9.256c1.104,0,2-0.896,2-2S37.779,82,36.674,82z"/>
	<path d="M55.187,82H45.93c-1.104,0-2,0.896-2,2s0.896,2,2,2h9.256c1.104,0,2-0.896,2-2S56.291,82,55.187,82z"/>
	<path d="M73.698,82h-9.256c-1.104,0-2,0.896-2,2s0.896,2,2,2h9.256c1.104,0,2-0.896,2-2S74.803,82,73.698,82z"/>
	<path d="M18.162,82H15v-3.294c0-1.104-0.896-2-2-2s-2,0.896-2,2v5C11,84.811,12.058,86,13.162,86h5c1.104,0,2-0.896,2-2
		S19.267,82,18.162,82z"/>
	<path d="M11,64.301v2.786c0,1.104,0.896,2,2,2s2-0.896,2-2v-2.786c0,0.134-1.315,0.206-2,0.206C12.315,64.507,12,64.435,11,64.301z
		"/>
	<path d="M14.708,45.005C14.941,44.678,15,44.281,15,43.849V32.23c0-1.104-0.896-2-2-2s-2,0.896-2,2v11.619
		c0,0.432,0.221,0.829,0.454,1.156c0.531-0.089,1.072-0.146,1.627-0.146S14.178,44.916,14.708,45.005z"/>
	<path d="M13,22.612c1.104,0,2-0.896,2-2V18h3.162c1.104,0,2-0.896,2-2s-0.896-2-2-2h-5C12.058,14,11,14.507,11,15.612v5
		C11,21.716,11.896,22.612,13,22.612z"/>
	<path d="M27.418,18h9.256c1.104,0,2-0.896,2-2s-0.896-2-2-2h-9.256c-1.104,0-2,0.896-2,2S26.313,18,27.418,18z"/>
	<path d="M73.698,14h-9.256c-1.104,0-2,0.896-2,2s0.896,2,2,2h9.256c1.104,0,2-0.896,2-2S74.803,14,73.698,14z"/>
	<path d="M82.954,18H86v2.612c0,1.104,0.896,2,2,2s2-0.896,2-2v-5C90,14.507,89.059,14,87.954,14h-5c-1.104,0-2,0.896-2,2
		S81.85,18,82.954,18z"/>
	<path d="M90,32.231c0-1.104-0.896-2-2-2s-2,0.896-2,2V43.85c0,1.104,0.896,2,2,2s2-0.896,2-2V32.231z"/>
	<path d="M88,53.469c-1.104,0-2,0.896-2,2v11.618c0,1.104,0.896,2,2,2s2-0.896,2-2V55.469C90,54.364,89.104,53.469,88,53.469z"/>
</g>
<g id="Layer_1">
</g>
</svg>
