<?xml version="1.0" encoding="iso-8859-1"?>
<!-- Generator: Adobe Illustrator 18.0.0, SVG Export Plug-In . SVG Version: 6.00 Build 0)  -->
<svg version="1.1" xmlns="http://www.w3.org/2000/svg" xmlns:xlink="http://www.w3.org/1999/xlink" x="0px" y="0px"
	 viewBox="0 0 100 100" style="enable-background:new 0 0 100 100;" xml:space="preserve">
<g id="turf-tin">
	<circle cx="13.162" cy="54.683" r="5.824"/>
	<circle cx="51.116" cy="15.612" r="5.824"/>
	<circle cx="87.954" cy="83.706" r="5.824"/>
	<circle cx="50" cy="50.218" r="5.824"/>
	<path d="M40.7,53.359l-17.757,2.152c-0.205,2.423-1.287,4.598-2.934,6.202l58.146,22.491c-0.008-0.166-0.025-0.33-0.025-0.499
		c0-1.768,0.478-3.421,1.299-4.854L55.877,58.071c-1.641,1.232-3.672,1.971-5.877,1.971C45.683,60.042,42.015,57.239,40.7,53.359z"
		/>
	<path d="M59.824,50.218c0,1.767-0.476,3.423-1.296,4.858l23.546,20.775c1.454-1.089,3.218-1.786,5.134-1.931L58.899,21.583
		c-1.47,1.911-3.626,3.257-6.094,3.69l-0.497,15.407C56.614,41.722,59.824,45.597,59.824,50.218z"/>
	<path d="M48.311,40.55l0.496-15.391c-3.113-0.755-5.649-2.997-6.816-5.93L16.389,45.415c2.851,0.996,5.106,3.266,6.077,6.126
		l17.751-2.151C40.593,44.924,43.964,41.308,48.311,40.55z"/>
</g>
<g id="Layer_1">
</g>
</svg>
