<?xml version="1.0" encoding="iso-8859-1"?>
<!-- Generator: Adobe Illustrator 18.0.0, SVG Export Plug-In . SVG Version: 6.00 Build 0)  -->
<svg version="1.1" xmlns="http://www.w3.org/2000/svg" xmlns:xlink="http://www.w3.org/1999/xlink" x="0px" y="0px"
	 viewBox="0 0 100 100" style="enable-background:new 0 0 100 100;" xml:space="preserve">
<g id="turf-point-on-surface">
	<path d="M15,20c-1.104,0-2-0.896-2-2v-5c0-1.104,0.896-2,2-2h5c1.104,0,2,0.896,2,2s-0.896,2-2,2h-3v3C17,19.104,16.104,20,15,20z"
		/>
	<path d="M15,60c-1.104,0-2-0.896-2-2V48c0-1.104,0.896-2,2-2s2,0.896,2,2v10C17,59.104,16.104,60,15,60z"/>
	<path d="M15,40c-1.104,0-2-0.896-2-2V28c0-1.104,0.896-2,2-2s2,0.896,2,2v10C17,39.104,16.104,40,15,40z"/>
	<path d="M19.174,76.749c-0.377,0-0.759-0.106-1.098-0.329L13.9,73.671C13.338,73.301,13,72.673,13,72v-5c0-1.104,0.896-2,2-2
		s2,0.896,2,2v3.922l3.276,2.156c0.923,0.607,1.178,1.848,0.571,2.771C20.462,76.433,19.825,76.749,19.174,76.749z"/>
	<path d="M74.989,91H64.976c-1.104,0-2-0.896-2-2s0.896-2,2-2h10.014c1.104,0,2,0.896,2,2S76.094,91,74.989,91z"/>
	<path d="M54.963,91H44.949c-1.104,0-2-0.896-2-2s0.896-2,2-2h10.014c1.104,0,2,0.896,2,2S56.067,91,54.963,91z"/>
	<path d="M35.904,87.763c-0.377,0-0.759-0.106-1.098-0.33l-8.363-5.507c-0.922-0.607-1.178-1.848-0.57-2.77
		c0.607-0.923,1.848-1.179,2.771-0.57l8.363,5.507c0.922,0.607,1.178,1.848,0.57,2.77C37.192,87.446,36.555,87.763,35.904,87.763z"
		/>
	<path d="M90,91h-5c-1.104,0-2-0.896-2-2s0.896-2,2-2h2.866l-0.186-2.86c-0.071-1.102,0.765-2.054,1.867-2.125
		c1.091-0.07,2.054,0.765,2.125,1.867l0.323,4.989c0.035,0.552-0.159,1.093-0.537,1.497C91.081,90.771,90.553,91,90,91z"/>
	<path d="M89.146,77.877c-1.046,0-1.925-0.812-1.994-1.87l-0.527-8.133c-0.071-1.103,0.765-2.055,1.866-2.126
		c1.118-0.067,2.054,0.765,2.126,1.866l0.527,8.133c0.071,1.103-0.765,2.055-1.866,2.126C89.233,77.876,89.19,77.877,89.146,77.877z
		"/>
	<path d="M88.092,61.611c-1.046,0-1.925-0.812-1.994-1.87l-0.23-3.549l-3.441-0.898c-1.068-0.279-1.708-1.372-1.43-2.441
		c0.279-1.067,1.367-1.708,2.441-1.43l4.838,1.264c0.833,0.219,1.434,0.946,1.49,1.806l0.324,4.989
		c0.071,1.103-0.764,2.054-1.866,2.126C88.18,61.61,88.136,61.611,88.092,61.611z"/>
	<path d="M77.119,53.841c-0.167,0-0.337-0.021-0.507-0.065l-5.813-1.519c-1.068-0.279-1.708-1.372-1.43-2.441
		c0.279-1.069,1.366-1.712,2.441-1.43l5.813,1.519c1.068,0.279,1.708,1.372,1.43,2.441C78.818,53.244,78.008,53.841,77.119,53.841z"
		/>
	<path d="M65.492,50.803c-0.167,0-0.337-0.021-0.507-0.065l-4.838-1.264c-0.646-0.169-1.167-0.65-1.385-1.283
		s-0.105-1.332,0.3-1.864l3.029-3.978c0.669-0.877,1.923-1.049,2.803-0.379c0.879,0.669,1.049,1.924,0.379,2.803l-1.21,1.589
		l1.934,0.505c1.068,0.279,1.708,1.372,1.43,2.44C67.191,50.208,66.381,50.803,65.492,50.803z"/>
	<path d="M70.431,36.7c-0.422,0-0.848-0.133-1.21-0.409c-0.879-0.669-1.049-1.924-0.379-2.803l6.749-8.861
		c0.669-0.878,1.922-1.049,2.803-0.379c0.879,0.669,1.049,1.924,0.379,2.803l-6.749,8.861C71.63,36.429,71.034,36.7,70.431,36.7z"/>
	<path d="M83.948,18.978c-0.42,0-0.844-0.132-1.205-0.405c-0.881-0.667-1.055-1.921-0.388-2.802L82.938,15H82c-1.104,0-2-0.896-2-2
		s0.896-2,2-2h4.96c0.759,0,1.453,0.43,1.791,1.109s0.262,1.492-0.196,2.098l-3.01,3.978C85.151,18.704,84.554,18.978,83.948,18.978
		z"/>
	<path d="M73,15h-9c-1.104,0-2-0.896-2-2s0.896-2,2-2h9c1.104,0,2,0.896,2,2S74.104,15,73,15z"/>
	<path d="M55,15h-9c-1.104,0-2-0.896-2-2s0.896-2,2-2h9c1.104,0,2,0.896,2,2S56.104,15,55,15z"/>
	<path d="M37,15h-9c-1.104,0-2-0.896-2-2s0.896-2,2-2h9c1.104,0,2,0.896,2,2S38.104,15,37,15z"/>
	<circle cx="68.331" cy="72.493" r="6.845"/>
</g>
<g id="Layer_1">
</g>
</svg>
