<?xml version="1.0" encoding="iso-8859-1"?>
<!-- Generator: Adobe Illustrator 18.0.0, SVG Export Plug-In . SVG Version: 6.00 Build 0)  -->
<svg version="1.1" xmlns="http://www.w3.org/2000/svg" xmlns:xlink="http://www.w3.org/1999/xlink" x="0px" y="0px"
	 viewBox="0 0 100 100" style="enable-background:new 0 0 100 100;" xml:space="preserve">
<g id="turf-kinks">
	<path style="fill:none;stroke:#000000;stroke-miterlimit:10;" d="M9.351,9.351"/>
	<path d="M12.711,16.536c-0.529,0-1.057-0.208-1.45-0.622l-3.36-3.536c-0.551-0.58-0.704-1.432-0.388-2.167S8.551,9,9.351,9H14
		c1.104,0,2,0.896,2,2c0,1.101-0.89,1.994-1.989,2l0.15,0.158c0.761,0.801,0.729,2.067-0.072,2.828
		C13.702,16.353,13.206,16.536,12.711,16.536z"/>
	<path d="M39.749,43.398c-0.512,0-1.024-0.195-1.414-0.586l-6.715-6.716c-0.781-0.781-0.781-2.047,0-2.828
		c0.781-0.781,2.048-0.781,2.828,0l6.715,6.716c0.781,0.781,0.781,2.047,0,2.828C40.772,43.203,40.26,43.398,39.749,43.398z"/>
	<path d="M26.317,29.967c-0.512,0-1.024-0.195-1.414-0.586l-6.715-6.716c-0.781-0.781-0.781-2.047,0-2.828
		c0.781-0.781,2.048-0.781,2.828,0l6.715,6.716c0.781,0.781,0.781,2.047,0,2.828C27.341,29.771,26.829,29.967,26.317,29.967z"/>
	<path d="M60.251,43.398c-0.512,0-1.023-0.195-1.414-0.586c-0.781-0.781-0.781-2.047,0-2.828l6.716-6.715
		c0.781-0.781,2.047-0.781,2.828,0c0.781,0.781,0.781,2.047,0,2.828l-6.716,6.715C61.274,43.203,60.763,43.398,60.251,43.398z"/>
	<path d="M73.683,29.967c-0.512,0-1.023-0.195-1.414-0.586c-0.781-0.781-0.781-2.047,0-2.828l6.716-6.715
		c0.781-0.781,2.047-0.781,2.828,0c0.781,0.781,0.781,2.047,0,2.828l-6.716,6.715C74.706,29.771,74.194,29.967,73.683,29.967z"/>
	<path d="M87.289,16.536c-0.495,0-0.991-0.183-1.378-0.55c-0.801-0.761-0.833-2.027-0.071-2.828L85.989,13
		C84.89,12.994,84,12.101,84,11c0-1.104,0.896-2,2-2h4.649c0.8,0,1.522,0.477,1.838,1.211s0.163,1.587-0.389,2.167l-3.36,3.536
		C88.346,16.327,87.817,16.536,87.289,16.536z"/>
	<path d="M75,13H65c-1.104,0-2-0.896-2-2s0.896-2,2-2h10c1.104,0,2,0.896,2,2S76.104,13,75,13z"/>
	<path d="M55,13H45c-1.104,0-2-0.896-2-2s0.896-2,2-2h10c1.104,0,2,0.896,2,2S56.104,13,55,13z"/>
	<path d="M35,13H25c-1.104,0-2-0.896-2-2s0.896-2,2-2h10c1.104,0,2,0.896,2,2S36.104,13,35,13z"/>
	<path d="M14,94H9.351c-0.8,0-1.523-0.478-1.838-1.213c-0.315-0.735-0.161-1.588,0.391-2.168l3.366-3.529
		c0.762-0.798,2.028-0.828,2.828-0.066c0.799,0.763,0.829,2.028,0.067,2.828L14.022,90C15.117,90.012,16,90.903,16,92
		C16,93.104,15.104,94,14,94z"/>
	<path d="M19.606,83.782c-0.513,0-1.026-0.196-1.417-0.588c-0.779-0.783-0.777-2.049,0.005-2.829l6.713-6.688
		c0.782-0.778,2.048-0.775,2.829,0.005c0.779,0.783,0.777,2.049-0.005,2.829l-6.713,6.688
		C20.627,83.588,20.117,83.782,19.606,83.782z"/>
	<path d="M33.032,70.405c-0.513,0-1.026-0.196-1.417-0.588c-0.779-0.783-0.777-2.049,0.005-2.829l6.713-6.688
		c0.782-0.779,2.048-0.776,2.829,0.005c0.779,0.783,0.777,2.049-0.005,2.829l-6.713,6.688
		C34.054,70.211,33.543,70.405,33.032,70.405z"/>
	<path d="M80.395,83.782c-0.511,0-1.021-0.194-1.411-0.583l-6.714-6.688c-0.783-0.779-0.785-2.046-0.006-2.828
		c0.779-0.784,2.047-0.785,2.828-0.006l6.714,6.688c0.783,0.779,0.785,2.046,0.006,2.828C81.421,83.586,80.907,83.782,80.395,83.782
		z"/>
	<path d="M66.968,70.406c-0.511,0-1.021-0.194-1.412-0.583l-6.713-6.688c-0.782-0.78-0.784-2.046-0.005-2.829
		c0.779-0.782,2.046-0.784,2.829-0.005l6.713,6.688c0.782,0.78,0.784,2.046,0.005,2.829C67.994,70.21,67.48,70.406,66.968,70.406z"
		/>
	<path d="M90.649,94H86c-1.104,0-2-0.896-2-2c0-1.097,0.883-1.987,1.978-2l-0.143-0.148c-0.763-0.8-0.732-2.065,0.066-2.828
		c0.8-0.761,2.064-0.732,2.828,0.066l3.367,3.529c0.553,0.579,0.706,1.432,0.392,2.168C92.173,93.522,91.45,94,90.649,94z"/>
	<path d="M75,94H65c-1.104,0-2-0.896-2-2s0.896-2,2-2h10c1.104,0,2,0.896,2,2S76.104,94,75,94z"/>
	<path d="M55,94H45c-1.104,0-2-0.896-2-2s0.896-2,2-2h10c1.104,0,2,0.896,2,2S56.104,94,55,94z"/>
	<path d="M35,94H25c-1.104,0-2-0.896-2-2s0.896-2,2-2h10c1.104,0,2,0.896,2,2S36.104,94,35,94z"/>
	<circle cx="50.178" cy="51.646" r="7.796"/>
</g>
<g id="Layer_1">
</g>
</svg>
