<?xml version="1.0" encoding="iso-8859-1"?>
<!-- Generator: Adobe Illustrator 18.0.0, SVG Export Plug-In . SVG Version: 6.00 Build 0)  -->
<svg version="1.1" xmlns="http://www.w3.org/2000/svg" xmlns:xlink="http://www.w3.org/1999/xlink" x="0px" y="0px"
	 viewBox="0 0 100 100" style="enable-background:new 0 0 100 100;" xml:space="preserve">
<g id="turf-square">
	<path d="M37.043,74.903c-1.104,0-2-0.896-2-2v-9.161c0-1.104,0.896-2,2-2s2,0.896,2,2v9.161
		C39.043,74.008,38.147,74.903,37.043,74.903z"/>
	<path d="M37.043,56.581c-1.104,0-2-0.896-2-2v-9.162c0-1.104,0.896-2,2-2s2,0.896,2,2v9.162
		C39.043,55.686,38.147,56.581,37.043,56.581z"/>
	<path d="M37.043,38.258c-1.104,0-2-0.896-2-2v-9.161c0-1.104,0.896-2,2-2s2,0.896,2,2v9.161
		C39.043,37.363,38.147,38.258,37.043,38.258z"/>
	<path d="M62.957,74.903c-1.104,0-2-0.896-2-2v-9.161c0-1.104,0.896-2,2-2c1.104,0,2,0.896,2,2v9.161
		C64.957,74.008,64.061,74.903,62.957,74.903z"/>
	<path d="M62.957,56.58c-1.104,0-2-0.896-2-2v-9.161c0-1.104,0.896-2,2-2c1.104,0,2,0.896,2,2v9.161
		C64.957,55.685,64.061,56.58,62.957,56.58z"/>
	<path d="M62.957,38.258c-1.104,0-2-0.896-2-2v-9.161c0-1.104,0.896-2,2-2c1.104,0,2,0.896,2,2v9.161
		C64.957,37.362,64.061,38.258,62.957,38.258z"/>
	<g>
		<path style="fill:none;" d="M63,19.936c-1.104,0-2-0.896-2-2V15h-3.454H42.454H39v2.936c0,1.104-0.896,2-2,2s-2-0.896-2-2V15H15
			v70h20v-2.936c0-1.104,0.896-2,2-2s2,0.896,2,2V85h3.454h15.092H61v-2.936c0-1.104,0.896-2,2-2s2,0.896,2,2V85h20V15H65v2.936
			C65,19.04,64.104,19.936,63,19.936z"/>
		<path d="M87.064,11H62.546h-5H42.454h-5H12.936C11.831,11,11,11.831,11,12.936v74.129C11,88.169,11.831,89,12.936,89h24.518h5
			h15.092h5h24.519C88.169,89,89,88.169,89,87.064V12.936C89,11.831,88.169,11,87.064,11z M85,85H65v-2.936c0-1.104-0.896-2-2-2
			s-2,0.896-2,2V85h-0.454h-3H42.454h-3H39v-2.936c0-1.104-0.896-2-2-2s-2,0.896-2,2V85H15V15h20v2.936c0,1.104,0.896,2,2,2
			s2-0.896,2-2V15h0.454h3h15.092h3H61v2.936c0,1.104,0.896,2,2,2s2-0.896,2-2V15h20V85z"/>
	</g>
</g>
<g id="Layer_1">
</g>
</svg>
