<?xml version="1.0" encoding="iso-8859-1"?>
<!-- Generator: Adobe Illustrator 18.0.0, SVG Export Plug-In . SVG Version: 6.00 Build 0)  -->
<svg version="1.1" xmlns="http://www.w3.org/2000/svg" xmlns:xlink="http://www.w3.org/1999/xlink" x="0px" y="0px"
	 viewBox="0 0 100 100" style="enable-background:new 0 0 100 100;" xml:space="preserve">
<g id="turf-size">
	<path d="M76.647,30.353c-1.104,0-2-0.896-2-2v-3h-3c-1.104,0-2-0.896-2-2s0.896-2,2-2h5c1.104,0,2,0.896,2,2v5
		C78.647,29.457,77.752,30.353,76.647,30.353z"/>
	<path d="M62.988,25.353h-8.659c-1.104,0-2-0.896-2-2s0.896-2,2-2h8.659c1.104,0,2,0.896,2,2S64.093,25.353,62.988,25.353z"/>
	<path d="M45.67,25.353h-8.659c-1.104,0-2-0.896-2-2s0.896-2,2-2h8.659c1.104,0,2,0.896,2,2S46.775,25.353,45.67,25.353z"/>
	<path d="M23.353,30.353c-1.104,0-2-0.896-2-2v-5c0-1.104,0.896-2,2-2h5c1.104,0,2,0.896,2,2s-0.896,2-2,2h-3v3
		C25.353,29.457,24.457,30.353,23.353,30.353z"/>
	<path d="M23.353,64.988c-1.104,0-2-0.896-2-2v-8.659c0-1.104,0.896-2,2-2s2,0.896,2,2v8.659
		C25.353,64.093,24.457,64.988,23.353,64.988z"/>
	<path d="M23.353,47.67c-1.104,0-2-0.896-2-2v-8.659c0-1.104,0.896-2,2-2s2,0.896,2,2v8.659
		C25.353,46.775,24.457,47.67,23.353,47.67z"/>
	<path d="M28.353,78.647h-5c-1.104,0-2-0.896-2-2v-5c0-1.104,0.896-2,2-2s2,0.896,2,2v3h3c1.104,0,2,0.896,2,2
		S29.457,78.647,28.353,78.647z"/>
	<path d="M62.988,78.647h-8.659c-1.104,0-2-0.896-2-2s0.896-2,2-2h8.659c1.104,0,2,0.896,2,2S64.093,78.647,62.988,78.647z"/>
	<path d="M45.67,78.647h-8.659c-1.104,0-2-0.896-2-2s0.896-2,2-2h8.659c1.104,0,2,0.896,2,2S46.775,78.647,45.67,78.647z"/>
	<path d="M76.647,78.647h-5c-1.104,0-2-0.896-2-2s0.896-2,2-2h3v-3c0-1.104,0.896-2,2-2s2,0.896,2,2v5
		C78.647,77.752,77.752,78.647,76.647,78.647z"/>
	<path d="M76.647,64.988c-1.104,0-2-0.896-2-2v-8.659c0-1.104,0.896-2,2-2s2,0.896,2,2v8.659
		C78.647,64.093,77.752,64.988,76.647,64.988z"/>
	<path d="M76.647,47.67c-1.104,0-2-0.896-2-2v-8.659c0-1.104,0.896-2,2-2s2,0.896,2,2v8.659
		C78.647,46.775,77.752,47.67,76.647,47.67z"/>
	<path d="M90.216,92.216H9.784c-1.104,0-2-0.896-2-2V9.784c0-1.104,0.896-2,2-2h80.432c1.104,0,2,0.896,2,2v80.432
		C92.216,91.32,91.32,92.216,90.216,92.216z M11.784,88.216h76.432V11.784H11.784V88.216z"/>
</g>
<g id="Layer_1">
</g>
</svg>
