<?xml version="1.0" encoding="iso-8859-1"?>
<!-- Generator: Adobe Illustrator 18.0.0, SVG Export Plug-In . SVG Version: 6.00 Build 0)  -->
<svg version="1.1" xmlns="http://www.w3.org/2000/svg" xmlns:xlink="http://www.w3.org/1999/xlink" x="0px" y="0px"
	 viewBox="0 0 100 100" style="enable-background:new 0 0 100 100;" xml:space="preserve">
<g id="turf-midpoint">
	<circle cx="49.331" cy="50.493" r="6.845"/>
	<path d="M85.331,23.338c-4.877,0-8.845-3.968-8.845-8.845c0-4.877,3.968-8.845,8.845-8.845s8.845,3.968,8.845,8.845
		C94.176,19.37,90.208,23.338,85.331,23.338z M85.331,9.648c-2.672,0-4.845,2.173-4.845,4.845c0,2.671,2.173,4.845,4.845,4.845
		s4.845-2.173,4.845-4.845C90.176,11.821,88.003,9.648,85.331,9.648z"/>
	<path d="M14.331,94.338c-4.877,0-8.845-3.968-8.845-8.845s3.968-8.845,8.845-8.845c4.877,0,8.845,3.968,8.845,8.845
		S19.208,94.338,14.331,94.338z M14.331,80.648c-2.672,0-4.845,2.173-4.845,4.845s2.173,4.845,4.845,4.845
		c2.671,0,4.845-2.173,4.845-4.845S17.002,80.648,14.331,80.648z"/>
</g>
<g id="Layer_1">
</g>
</svg>
