<?xml version="1.0" encoding="iso-8859-1"?>
<!-- Generator: Adobe Illustrator 18.0.0, SVG Export Plug-In . SVG Version: 6.00 Build 0)  -->
<svg version="1.1" xmlns="http://www.w3.org/2000/svg" xmlns:xlink="http://www.w3.org/1999/xlink" x="0px" y="0px"
	 viewBox="0 0 100 100" style="enable-background:new 0 0 100 100;" xml:space="preserve">
<g id="turf-erased">
	<path d="M76.107,36.425l3.842-16.958c0.228-1-0.34-2.01-1.312-2.337L38.462,3.613c-0.669-0.226-1.41-0.08-1.946,0.382L8.109,28.552
		c-0.502,0.435-0.756,1.089-0.678,1.749l4.7,39.609c0.111,0.936,0.859,1.667,1.797,1.756l14.747,1.395
		c3.584,14.489,16.715,24.856,31.783,24.856c18.056,0,32.744-14.689,32.744-32.744C93.202,53.226,86.537,42.123,76.107,36.425z
		 M60.458,93.917c-12.749,0-23.916-8.453-27.524-20.452l0.671,0.064c0.064,0.006,0.127,0.009,0.191,0.009
		c1.02,0,1.891-0.776,1.989-1.812c0.104-1.1-0.703-2.075-1.803-2.18l-1.961-0.185c-0.009-0.06-0.014-0.12-0.022-0.179
		c-0.066-0.47-0.12-0.941-0.163-1.411c-0.078-0.865-0.122-1.732-0.122-2.597c0-15.85,12.895-28.745,28.745-28.745
		c3.266,0,6.436,0.535,9.46,1.592c0.004,0.001,0.007,0.004,0.011,0.005c0.526,0.183,1.052,0.385,1.573,0.601
		c0.002,0.001,0.004,0.002,0.005,0.003l-0.412,1.818c-0.244,1.077,0.431,2.148,1.508,2.393c0.149,0.034,0.298,0.05,0.444,0.05
		c0.913,0,1.738-0.63,1.948-1.559l0.189-0.832c8.586,5.149,14.018,14.568,14.018,24.673C89.202,81.022,76.308,93.917,60.458,93.917z
		"/>
	<path d="M56.312,75.667c-0.062,0-0.126-0.003-0.19-0.009l-5.629-0.532c-1.1-0.104-1.907-1.08-1.803-2.18
		c0.104-1.099,1.067-1.909,2.18-1.803l5.629,0.532c1.1,0.104,1.906,1.08,1.803,2.18C58.203,74.891,57.332,75.667,56.312,75.667z
		 M45.054,74.602c-0.063,0-0.126-0.003-0.191-0.009l-5.629-0.532c-1.1-0.104-1.907-1.08-1.803-2.18s1.072-1.909,2.18-1.803
		l5.629,0.532c1.1,0.104,1.907,1.08,1.803,2.18C46.944,73.825,46.073,74.602,45.054,74.602z"/>
	<path d="M65.425,76.529c-0.063,0-0.126-0.003-0.19-0.009l-3.484-0.329c-1.1-0.104-1.906-1.08-1.803-2.18
		c0.104-1.099,1.059-1.905,2.18-1.803l1.733,0.164l0.386-1.699c0.244-1.076,1.313-1.756,2.393-1.508
		c1.077,0.244,1.752,1.315,1.508,2.393l-0.773,3.413C67.165,75.89,66.35,76.529,65.425,76.529z"/>
	<path d="M67.567,67.071c-0.146,0-0.295-0.016-0.444-0.05c-1.077-0.244-1.752-1.315-1.508-2.393l1.37-6.045
		c0.243-1.076,1.312-1.756,2.393-1.508c1.077,0.244,1.752,1.315,1.508,2.393l-1.37,6.045C69.306,66.441,68.48,67.071,67.567,67.071z
		 M70.308,54.98c-0.146,0-0.295-0.016-0.444-0.05c-1.077-0.244-1.752-1.315-1.508-2.393l1.37-6.044
		c0.244-1.078,1.312-1.751,2.393-1.509c1.077,0.244,1.752,1.315,1.508,2.393l-1.37,6.045C72.046,54.351,71.221,54.98,70.308,54.98z"
		/>
</g>
<g id="Layer_1">
</g>
</svg>
