<?xml version="1.0" encoding="iso-8859-1"?>
<!-- Generator: Adobe Illustrator 18.0.0, SVG Export Plug-In . SVG Version: 6.00 Build 0)  -->
<svg version="1.1" xmlns="http://www.w3.org/2000/svg" xmlns:xlink="http://www.w3.org/1999/xlink" x="0px" y="0px"
	 viewBox="0 0 100 100" style="enable-background:new 0 0 100 100;" xml:space="preserve">
<g id="turf-line-slice">
	<g>
		<path d="M22.977,90.884c-0.226,0-0.455-0.039-0.68-0.12c-1.039-0.375-1.577-1.521-1.201-2.561l1.699-4.702
			c0.375-1.039,1.52-1.577,2.561-1.201c1.039,0.375,1.577,1.521,1.201,2.561l-1.699,4.702
			C24.563,90.377,23.795,90.884,22.977,90.884z"/>
		<path d="M65.953,29.276c-0.698,0-1.376-0.366-1.744-1.018c-0.542-0.962-0.202-2.182,0.76-2.725l9.304-5.249
			c0.963-0.542,2.182-0.203,2.725,0.759c0.542,0.962,0.202,2.182-0.76,2.725l-9.304,5.249
			C66.623,29.193,66.286,29.276,65.953,29.276z"/>
		<path d="M84.56,18.779c-0.698,0-1.376-0.366-1.744-1.018c-0.542-0.962-0.202-2.182,0.76-2.725l4.354-2.457
			c0.963-0.542,2.182-0.203,2.725,0.759c0.542,0.962,0.202,2.182-0.76,2.725L85.54,18.52C85.229,18.695,84.893,18.779,84.56,18.779z
			"/>
	</g>
	<path d="M57.687,31.938c-0.543-0.961-1.763-1.301-2.725-0.759l-16.009,9.032c-0.417,0.235-0.764,0.612-0.926,1.062L30,63.408v0.002
		l-3.603,10.046c-0.375,1.039,0.176,2.186,1.215,2.561c0.225,0.081,0.461,0.12,0.687,0.12c0.818,0,1.412-0.507,1.706-1.321
		L32,68.808v-0.002l9.385-25.476l15.452-8.667C57.799,34.121,58.229,32.901,57.687,31.938z"/>
</g>
<g id="Layer_1">
</g>
</svg>
