<?xml version="1.0" encoding="iso-8859-1"?>
<!-- Generator: Adobe Illustrator 18.0.0, SVG Export Plug-In . SVG Version: 6.00 Build 0)  -->
<svg version="1.1" xmlns="http://www.w3.org/2000/svg" xmlns:xlink="http://www.w3.org/1999/xlink" x="0px" y="0px"
	 viewBox="0 0 100 100" style="enable-background:new 0 0 100 100;" xml:space="preserve">
<g id="turf-simplify">
	<path d="M51.458,93.438c-2.885,0-5.768-0.285-8.568-0.849c-1.083-0.218-1.785-1.272-1.567-2.355
		c0.217-1.082,1.272-1.782,2.355-1.566c3.09,0.622,6.307,0.865,9.467,0.735c1.129-0.052,2.034,0.812,2.081,1.915
		c0.046,1.104-0.812,2.035-1.915,2.081C52.696,93.425,52.079,93.438,51.458,93.438z"/>
	<path d="M63.065,91.784c-0.865,0-1.663-0.566-1.919-1.439c-0.31-1.06,0.298-2.171,1.358-2.481c3.039-0.89,5.972-2.152,8.716-3.754
		c0.954-0.556,2.179-0.235,2.735,0.72c0.557,0.954,0.234,2.179-0.72,2.735c-3.024,1.765-6.257,3.157-9.608,4.139
		C63.44,91.758,63.252,91.784,63.065,91.784z"/>
	<path d="M33.817,89.489c-0.287,0-0.579-0.062-0.855-0.192c-3.155-1.495-6.128-3.375-8.838-5.588
		c-0.856-0.698-0.983-1.958-0.285-2.813c0.698-0.856,1.959-0.983,2.814-0.285c2.46,2.009,5.159,3.715,8.022,5.071
		c0.998,0.474,1.424,1.666,0.951,2.664C35.284,89.067,34.566,89.489,33.817,89.489z"/>
	<path d="M80.174,81.807c-0.522,0-1.044-0.203-1.437-0.608c-0.769-0.793-0.749-2.059,0.045-2.828c2.281-2.212,4.29-4.693,5.97-7.376
		c0.587-0.937,1.819-1.219,2.757-0.634c0.937,0.586,1.22,1.82,0.634,2.757c-1.851,2.955-4.063,5.689-6.577,8.126
		C81.178,81.619,80.676,81.807,80.174,81.807z"/>
	<path d="M18.477,76.969c-0.607,0-1.206-0.275-1.599-0.797c-2.106-2.798-3.867-5.844-5.235-9.054
		c-0.433-1.017,0.04-2.191,1.056-2.624c1.016-0.436,2.19,0.041,2.624,1.056c1.241,2.913,2.839,5.677,4.75,8.216
		c0.665,0.883,0.488,2.137-0.395,2.801C19.318,76.838,18.896,76.969,18.477,76.969z"/>
	<path d="M90.682,65.028c-0.206,0-0.416-0.032-0.622-0.101c-1.05-0.344-1.622-1.473-1.278-2.522
		c0.983-3.006,1.601-6.138,1.833-9.308c0.082-1.102,1.033-1.938,2.142-1.848c1.102,0.08,1.929,1.039,1.849,2.141
		c-0.257,3.493-0.938,6.945-2.022,10.259C92.307,64.492,91.523,65.028,90.682,65.028z"/>
	<path d="M10.715,58.749c-0.965,0-1.814-0.699-1.972-1.683c-0.366-2.273-0.551-4.593-0.551-6.894c0-1.181,0.048-2.376,0.143-3.553
		c0.089-1.1,1.046-1.917,2.156-1.832c1.101,0.09,1.921,1.055,1.832,2.156c-0.087,1.069-0.131,2.155-0.13,3.228
		c0,2.09,0.168,4.195,0.5,6.26c0.175,1.091-0.566,2.117-1.657,2.292C10.928,58.741,10.821,58.749,10.715,58.749z"/>
	<path d="M92.147,45.28c-0.959,0-1.807-0.692-1.971-1.669c-0.525-3.126-1.434-6.188-2.699-9.097
		c-0.44-1.013,0.023-2.191,1.036-2.632c1.011-0.441,2.191,0.023,2.632,1.036c1.396,3.208,2.396,6.583,2.977,10.03
		c0.183,1.089-0.552,2.121-1.642,2.304C92.369,45.271,92.257,45.28,92.147,45.28z"/>
	<path d="M12.334,39.015c-0.211,0-0.426-0.034-0.637-0.104c-1.047-0.352-1.61-1.486-1.259-2.533c1.112-3.308,2.63-6.482,4.513-9.435
		c0.594-0.931,1.83-1.205,2.762-0.611c0.931,0.594,1.205,1.831,0.611,2.762c-1.708,2.679-3.086,5.559-4.094,8.559
		C13.949,38.487,13.17,39.015,12.334,39.015z"/>
	<path d="M84.251,27.12c-0.601,0-1.195-0.27-1.59-0.785c-1.927-2.519-4.158-4.804-6.634-6.792c-0.86-0.691-0.998-1.95-0.307-2.812
		c0.693-0.861,1.95-0.999,2.812-0.307c2.725,2.189,5.183,4.706,7.306,7.479c0.671,0.877,0.504,2.133-0.374,2.804
		C85.103,26.986,84.676,27.12,84.251,27.12z"/>
	<path d="M22.973,22.315c-0.528,0-1.054-0.208-1.447-0.619c-0.763-0.799-0.733-2.065,0.066-2.828
		c2.531-2.416,5.35-4.521,8.378-6.256c0.959-0.55,2.181-0.217,2.73,0.741c0.549,0.958,0.217,2.181-0.741,2.73
		c-2.749,1.575-5.308,3.486-7.606,5.679C23.966,22.131,23.469,22.315,22.973,22.315z"/>
	<path d="M69.39,14.999c-0.292,0-0.589-0.064-0.869-0.2c-2.856-1.38-5.879-2.41-8.982-3.059c-1.081-0.226-1.773-1.286-1.548-2.367
		c0.228-1.081,1.284-1.774,2.368-1.548c3.421,0.716,6.753,1.851,9.902,3.373c0.994,0.48,1.411,1.676,0.931,2.671
		C70.847,14.583,70.133,14.999,69.39,14.999z"/>
	<path d="M40.157,12.474c-0.872,0-1.673-0.574-1.923-1.454c-0.302-1.062,0.315-2.168,1.377-2.47c3.35-0.952,6.825-1.496,10.33-1.616
		c1.103-0.033,2.03,0.826,2.068,1.93s-0.826,2.03-1.93,2.068c-3.182,0.109-6.335,0.603-9.375,1.466
		C40.521,12.449,40.337,12.474,40.157,12.474z"/>
	<path d="M87.819,40.859L62.79,14.107c-0.778-0.832-1.844-1.267-2.923-1.267c-0.7,0-1.405,0.183-2.041,0.561L16.576,37.897
		c-1.317,0.782-2.071,2.247-1.944,3.772l1.851,22.153c0.136,1.623,1.242,3.002,2.797,3.486l48.799,15.19
		c0.394,0.123,0.795,0.181,1.189,0.181c1.543,0,2.996-0.898,3.654-2.373l15.63-35.087C89.206,43.751,88.917,42.033,87.819,40.859z"
		/>
</g>
<g id="Layer_1">
</g>
</svg>
