<?xml version="1.0" encoding="iso-8859-1"?>
<!-- Generator: Adobe Illustrator 18.0.0, SVG Export Plug-In . SVG Version: 6.00 Build 0)  -->
<svg version="1.1" xmlns="http://www.w3.org/2000/svg" xmlns:xlink="http://www.w3.org/1999/xlink" x="0px" y="0px"
	 viewBox="0 0 100 100" style="enable-background:new 0 0 100 100;" xml:space="preserve">
<g id="ui-earth-west">
	<path d="M54.669,11.225c1.662,0.25,3.093,1.629,3.405,3.28c1.244,0.04,2.263,0.943,3.237,1.718
		c0.974,0.775,2.212,1.502,3.399,1.126c-0.151-1.137-0.301-2.274-0.452-3.411c-0.101-0.763-0.21-1.549-0.599-2.213
		c-0.556-0.947-1.586-1.493-2.564-1.992c-1.162-0.592-2.345-1.192-3.628-1.426c-1.283-0.234-2.704-0.054-3.708,0.778
		c-0.477,0.396-0.849,1.107-0.495,1.616C53.558,11.127,54.159,11.148,54.669,11.225z"/>
	<path d="M66.997,12.265c1.027,0.093,1.96,0.858,2.253,1.846c0.042,0.142,0.07,0.304-0.005,0.433c-0.1,0.172-0.332,0.204-0.53,0.197
		c-0.32-0.011-0.642-0.075-0.928-0.219c-0.38-0.191-0.687-0.523-0.848-0.916c-0.161-0.394-0.174-0.845-0.037-1.248"/>
	<path d="M75.208,51.717c-1.124-0.241-2.339-1.324-2.975-2.235c-0.419-0.601-0.709-1.291-1.18-1.853
		c-0.521-0.621-1.233-1.05-1.951-1.426c-3.118-1.635-6.64-2.501-10.159-2.522c-2.319-0.014-5.814-0.328-7.148-2.74
		c-0.221-0.399-0.023-0.886,0.068-1.334s-0.065-1.06-0.521-1.083c-0.87-0.044-1.072,0.994-2.168,0.867
		c-0.792-0.092-1.863-0.68-2.131-1.464c-0.244-0.714,0.005-2.31,0.058-3.069c0.098-1.404,5.544-1.316,6.529-1.234
		c-0.185,1.072,0.898,2.747,2.097,1.772c1.039-0.844-0.248-3.176,0.657-4.342c1.181-1.524,2.697-3.045,4.029-4.475
		c0.375-0.403,0.752-0.807,1.182-1.15c0.939-0.747,2.089-1.169,3.126-1.773c-2.026-3.134-5.699-5.134-9.43-5.135
		c-0.288,0-0.603,0.021-0.815,0.216c-0.279,0.256-0.263,0.693-0.223,1.069c0.109,1.036,0.237,2.071,0.384,3.102
		c-1.063-0.422-2.127-0.845-3.19-1.267c-0.789-0.313-1.617-0.656-2.131-1.332c-0.513-0.676-0.546-1.793,0.158-2.266
		c0.992-0.667,2.498,0.38,3.478-0.303c0.59-0.412,0.743-1.321,1.408-1.596c0.595-0.245,1.239,0.155,1.868,0.295
		c0.628,0.14,1.517-0.367,1.213-0.935c-1.724-1.149-3.692-2.351-5.725-1.949c-1.023,0.202-1.925,0.797-2.922,1.102
		c-2.405,0.737-4.961-0.276-7.271-1.272c-0.352-0.152-0.716-0.311-0.975-0.594c-0.294-0.321-0.418-0.763-0.669-1.119
		c-0.796-1.127-3.758-1.124-3.564-1.179c-0.249-0.021-0.731,0.541-0.98,0.519c-0.218-0.019-2.433,2.247-2.838,2.519
		c-1.357,0.914-2.885,1.289-4.538,1.777c-1.625,0.48-3.472,2.333-0.943,2.458c2.072,0.102,5.087-0.639,7.104-1.103
		c0.372-0.085,0.778-0.177,1.121-0.01c0.336,0.163,0.517,0.528,0.66,0.873c1.259,3.036,1.42,6.514,0.447,9.653
		c-0.332,1.072-0.796,2.204-0.469,3.278c0.472,1.548,2.42,2.356,2.711,3.948c0.125,0.685-0.085,1.431,0.199,2.066
		c0.667,1.489,2.702,0.823,3.851,0.557c-0.006,0.002,0.17,2.318,0.328,2.572c0.558,0.895,2.018,1.123,2.938,1.38
		c3.393,0.949,6.378,2.392,9.436,4.136c0.74,0.422,1.514,0.876,1.945,1.612c1.155,1.97-0.758,4.302-1.005,6.572
		c-0.14,1.287,0.308,2.625,1.194,3.569c0.503,0.536,1.132,0.943,1.632,1.484c1.165,1.26,1.491,3.112,1.307,4.819
		c-0.183,1.707-0.811,3.328-1.337,4.962c-0.983,3.056-1.622,6.223-1.9,9.421c-0.083,0.953,0.429,1.201,1.283,0.939
		c1.217-0.372,0.998-1.521,1.306-2.427c0.885-2.61,3.701-4.935,6.102-6.072c1.067-0.505,2.238-0.888,3.066-1.729
		c1.168-1.186,1.424-3.054,2.596-4.237c0.998-1.008,2.513-1.365,3.52-2.365c1.092-1.085,1.473-2.675,2.182-3.997
		c0.534-0.995,1.556-1.808,2.007-2.809C80.589,51.859,76.944,52.089,75.208,51.717z"/>
	<path d="M50,2.608C23.858,2.608,2.666,23.8,2.666,49.942c0,26.142,21.192,47.334,47.334,47.334s47.334-21.192,47.334-47.334
		C97.334,23.8,76.142,2.608,50,2.608z M65.784,90.287c-1.119-0.443-2.351-0.599-3.534-0.375c-1.739,0.329-3.564,1.367-5.156,0.592
		c-1.577-0.767-1.895-3.052-1.033-4.58c0.862-1.528,2.527-2.416,4.176-3.013c-1.121-0.907-2.838-0.486-4,0.369
		c-1.162,0.854-2.029,2.066-3.213,2.889c-1.184,0.823-2.944,1.15-3.99,0.157c-0.035,0.819-0.992,1.288-1.812,1.285
		c-0.82-0.003-1.633-0.292-2.445-0.183c-1.097,0.146-1.991,1.009-2.477,2.003c-0.456,0.934-0.612,1.98-0.745,3.013
		C21.69,88.503,6.666,70.947,6.666,49.942C6.666,26.047,26.106,6.608,50,6.608c8.651,0,16.71,2.558,23.482,6.943
		c-0.131,0.684-0.179,1.373-0.062,2.061c0.268,1.584,1.702,3.093,3.288,2.832c0.097-0.384,0.193-0.768,0.29-1.151
		c2.002,0.403,3.708,2.021,4.216,3.999c-0.605,0.389-0.942,1.155-0.819,1.864c2.434,0.457,4.002,2.957,4.414,5.399
		s-0.023,4.94,0.005,7.417c0.044,3.895,1.618,8.176,5.168,9.779c0.987,0.446,2.165,0.624,3.167,0.286
		c0.116,1.288,0.185,2.589,0.185,3.906C93.334,68.268,81.893,83.962,65.784,90.287z"/>
</g>
<g id="Layer_1">
</g>
</svg>
