<?xml version="1.0" encoding="iso-8859-1"?>
<!-- Generator: Adobe Illustrator 18.0.0, SVG Export Plug-In . SVG Version: 6.00 Build 0)  -->
<svg version="1.1" xmlns="http://www.w3.org/2000/svg" xmlns:xlink="http://www.w3.org/1999/xlink" x="0px" y="0px"
	 viewBox="0 0 100 100" style="enable-background:new 0 0 100 100;" xml:space="preserve">
<g id="ui-earth-east">
	<path d="M28.318,65.346c0.634,0.008,1.009-0.696,1.191-1.304c0.673-2.247,0.725-4.676,0.15-6.95
		c-0.31,0.018-0.621,0.035-0.931,0.053c0.329,1.393-0.68,2.957-2.085,3.232c-0.203,1.34-0.006,2.739,0.559,3.971
		C27.422,64.827,27.79,65.34,28.318,65.346z"/>
	<path d="M74.711,59.541c-0.843-0.203-0.803-1.43-1.32-2.126c-0.799-1.076-2.489-0.515-3.658,0.139
		c-1.8,1.006-3.672,1.939-5.422,3.031c-2.06,1.285-2.264,3.833-2.587,5.993c-0.161,1.078-0.736,1.973,0.248,2.656
		c1.861,1.292,4.482-1.764,6.358-2.042c2.497-0.37,2.644,3.151,4.172,4.47c0.676,0.583,1.617,0.846,2.497,0.698
		c0.88-0.149,1.683-0.706,2.13-1.478c0.356-1.398,0.964-2.277,1.788-3.466c0.596-0.86,1.221-1.834,1.063-2.868
		c-0.139-0.909-0.845-1.605-1.385-2.35c-1.294-1.783-1.713-4.172-1.103-6.289c-0.85-0.005-1.182,1.081-1.31,1.922
		C76.053,58.671,75.538,59.74,74.711,59.541z"/>
	<path d="M52.529,46.896c-0.045,0.145-0.091,0.291-0.136,0.436c0.8,0.35,1.249,1.185,1.687,1.94
		c0.436,0.751,0.918,1.478,1.496,2.126c0.657,0.736,1.435,1.364,2.288,1.86c1.513,0.878,3.229,1.329,4.922,1.77
		c1.168,0.304,2.348,0.61,3.554,0.655s2.459-0.193,3.443-0.892c-2.523-0.132-5.097-0.043-7.522-0.754
		c-2.176-0.638-4.158-1.923-5.628-3.649c-0.597-0.701-1.112-1.473-1.753-2.136C54.24,47.589,53.441,47.028,52.529,46.896z"/>
	<path d="M63.168,52.315c0.214,0.013,0.438,0.01,0.628-0.088c0.452-0.233,0.499-0.844,0.555-1.349
		c0.091-0.831,0.366-1.641,0.8-2.355c0.209-0.344,0.456-0.671,0.588-1.051c0.132-0.38,0.125-0.841-0.142-1.142
		c-0.306-0.346-0.855-0.369-1.284-0.197c-0.429,0.171-0.775,0.496-1.138,0.78c-0.574,0.449-1.216,0.813-1.75,1.31
		c-0.534,0.496-0.964,1.171-0.942,1.9c0.019,0.634,0.39,1.227,0.902,1.603C61.896,52.101,62.534,52.276,63.168,52.315z"/>
	<path d="M71.874,50.449c-0.153,0.677,0.431,1.303,1.043,1.631c0.612,0.329,1.323,0.527,1.786,1.044
		c0.365,0.408,0.521,0.956,0.789,1.433c0.267,0.477,0.744,0.924,1.287,0.854c0.492-0.063,0.874-0.534,1.369-0.542
		c0.547-0.009,0.918,0.524,1.258,0.954c0.339,0.429,0.945,0.83,1.391,0.512c0.357-0.254,0.319-0.832,0.04-1.169
		s-0.715-0.494-1.129-0.636c-0.078-0.332,0.038-0.702,0.291-0.931c-1.229-0.728-2.459-1.456-3.688-2.183
		c-0.502-0.297-1.098-0.603-1.639-0.387c-0.402,0.161-0.726,0.596-1.154,0.53c-0.356-0.055-0.552-0.428-0.752-0.728
		S72.174,50.25,71.874,50.449z"/>
	<path d="M72.421,26.824c-0.258-0.625-0.745-1.268-0.512-1.902c0.048-0.131,0.127-0.258,0.116-0.397
		c-0.02-0.24-0.281-0.367-0.49-0.486c-0.862-0.49-1.27-1.485-1.761-2.346s-1.302-1.73-2.288-1.623c0.399,0.52,0.799,1.04,1.198,1.56
		c0.856,1.115,1.729,2.262,2.134,3.607c0.405,1.346,0.249,2.953-0.753,3.939c-0.301,0.296-0.663,0.524-0.979,0.804
		s-0.596,0.637-0.65,1.056c-0.054,0.419,0.187,0.896,0.6,0.986c0.27,0.059,0.547-0.049,0.796-0.17
		c0.935-0.454,1.786-1.131,2.308-2.031S72.818,27.785,72.421,26.824z"/>
	<path d="M72.301,73.758c-0.089,0.125-0.106,0.286-0.12,0.439c-0.051,0.556-0.102,1.113-0.153,1.669
		c0.24,0.123,0.507-0.1,0.676-0.31c0.485-0.602,0.89-1.269,1.201-1.977c-0.263,0.101-0.555,0.017-0.832-0.026
		C72.797,73.509,72.464,73.529,72.301,73.758z"/>
	<path d="M50,2.608C23.858,2.608,2.666,23.8,2.666,49.942c0,26.142,21.192,47.334,47.334,47.334s47.334-21.192,47.334-47.334
		C97.334,23.8,76.142,2.608,50,2.608z M65.63,9.536c-0.941,0.407-1.873,0.891-2.792,1.287c-3.404,1.466-7.182,1.746-10.879,2.007
		c-1.931,0.136-3.861,0.273-5.792,0.409c-0.032,0.602-0.551,1.14-1.151,1.194c-0.6,0.055-1.207-0.381-1.347-0.967
		c-1.848,1.351-4.33,1.79-6.53,1.157c0.003-0.823,1.163-1.358,1.791-0.825c0.341-1.123-0.595-2.312-1.71-2.68
		c-1.115-0.368-2.328-0.142-3.479,0.087c-1.331,0.265-2.692,0.541-3.86,1.232c-1.168,0.692-2.127,1.891-2.156,3.248
		c2.446-1.058,4.892-2.116,7.339-3.174c-1.295,1.148-2.59,2.296-3.885,3.443c-0.785,0.695-1.683,1.434-2.731,1.389
		c-1.048-0.045-1.967-1.416-1.233-2.165c-1.395,0.988-3.148,1.156-4.862,1.425C29.86,10.364,39.499,6.608,50,6.608
		C55.51,6.608,60.778,7.652,65.63,9.536z M17.702,21.091c1.121-0.076,2.28,0.381,3.005,1.245c0.875,1.042,1.07,2.606,0.478,3.832
		c0.772-0.078,1.544-0.156,2.315-0.234c0.09,0.411,0.18,0.822,0.269,1.233c0.746,0.048,1.492,0.096,2.238,0.144
		c-0.1,1.549-1.172,2.992-2.626,3.537c-1.454,0.544-3.21,0.159-4.303-0.943c-0.776,0.435-1.659-0.545-1.706-1.434
		c-0.047-0.889,0.322-1.783,0.143-2.655c-0.209-1.014-1.141-1.663-2.176-1.853C16.086,22.97,16.876,22.014,17.702,21.091z
		 M58.616,92.413c0.16-0.417,0.213-0.864,0.101-1.303c1.479,0.213,3.043-0.252,4.166-1.238c0.624-1.521-0.253-3.325-1.584-4.289
		c-1.331-0.964-3.008-1.287-4.624-1.585c-3.553-0.655-7.154-0.256-10.708,0.161c-2.934,0.344-6.249,0.978-8.321,3.285
		c-0.861,0.958-1.421,2.237-1.577,3.521C18.99,85.149,6.666,68.963,6.666,49.942c0-2.063,0.155-4.09,0.435-6.078
		c0.526,0.704,1.318,1.214,2.185,1.19c0.891,3.726,1.782,7.453,2.673,11.179c1.108,4.633,2.275,9.398,5.071,13.255
		c0.589,0.813,1.309,1.618,2.28,1.874c1.579,0.416,3.198-0.841,3.819-2.352c0.621-1.511,0.519-3.204,0.515-4.838
		c-0.021-7.288,2.14-14.568,6.133-20.664c-1.603,0.567-3.705,1.003-4.738-0.347c-0.463-0.605-0.548-1.409-0.616-2.167
		c-0.236-2.625-0.472-5.251-0.708-7.876c1.337,3.038,2.131,6.313,2.333,9.625c2.538-0.361,4.972-1.424,6.962-3.04
		c0.578-0.469,1.159-1.069,1.176-1.813c0.048-2.058-3.719-2.148-4.151-4.161c0.074,0.347,6.268,2.245,7.031,2.691
		c2.106,1.231,2.736,3.841,3.782,5.975c0.379,0.773,0.474,1.685,0.957,2.401c0.349,0.516,0.953,0.909,1.57,0.825
		c1.362-0.186,2.271-3.533,2.861-4.659c1.15-2.197,2.456-3.595,4.191-1.358c1.472,1.899,3.479,4.082,4.474,6.275
		c0.788,1.736,1.032,4.038,3.639,3.936c0.28-0.011-1.575-2.805-1.726-2.994c-0.895-1.119-1.404-2.231-2.003-3.589
		c0.757,0.967,1.84,1.753,3.065,1.848c1.224,0.094,2.549-0.672,2.808-1.872s-0.915-2.557-2.103-2.246
		c-0.306-0.683,0.278-1.475,0.97-1.76c0.692-0.284,1.47-0.249,2.201-0.407c2.641-0.572,4.097-4.121,2.618-6.383
		c-0.76-1.162-2.137-2.564-1.245-3.628c0.524-0.625,1.586-0.515,2.187,0.036c0.601,0.551,0.836,1.392,0.958,2.199
		c0.252-0.059,0.504-0.119,0.756-0.178c0.696-3.367,1.311-7.054-0.291-10.097c-0.452-0.859-1.079-1.879-0.576-2.709
		c0.287-0.473,0.853-0.685,1.274-1.044s0.659-1.101,0.207-1.42c0.476,0.021,0.953,0.042,1.429,0.064
		c-0.107,2.354,1.674,4.653,3.98,5.14c-1.114-2.898-1.945-5.904-2.485-8.962c13.546,7.335,22.768,21.677,22.768,38.133
		C93.334,70.887,78.397,88.406,58.616,92.413z"/>
	<path d="M84.409,73.861c-2.558,2.111-5.116,4.222-7.674,6.332C80.238,79.852,83.41,77.235,84.409,73.861z"/>
</g>
<g id="Layer_1">
</g>
</svg>
