<?xml version="1.0" encoding="iso-8859-1"?>
<!-- Generator: Adobe Illustrator 18.1.1, SVG Export Plug-In . SVG Version: 6.00 Build 0)  -->
<svg version="1.1" id="Layer_1" xmlns="http://www.w3.org/2000/svg" xmlns:xlink="http://www.w3.org/1999/xlink" x="0px" y="0px"
	 viewBox="0 0 283.448 156.552" style="enable-background:new 0 0 283.448 156.552;" xml:space="preserve">
<path style="fill:#999999;stroke:#000000;stroke-miterlimit:10;" d="M38.915,45.057c-0.533,2.548-2.381,4.358-2.924,7.312
	c-0.568,3.087-0.97,5.268-0.239,8.018c1.662,6.263,4.234,9.172,10.899,10.149c2.512,0.368,4.819,0.168,7.422,0.464
	c6.253,0.71,5.179,7.994,0.273,10.655c-8.942,4.85-16.826,2.297-23.19-5.22c-2.131-2.517-3.153-4.905-4.247-8.023
	c-1.609-4.585-3.663-10.75-3.743-15.685c-0.13-7.988,7.081-18.06,15.288-17.786c4.38,0.146,6.407,0.656,4.744,5.562
	c-0.634,1.871-1.748,2.718-3.005,4.115C39.294,44.281,39.591,44.773,38.915,45.057z"/>
<path style="fill:#B3B3B3;stroke:#000000;stroke-miterlimit:10;" d="M174.5,118.326c2.702-5.146,2.952-12.101,2.997-18.73
	c0.038-5.571-0.802-12.06-1.473-17.613c-0.429-3.548,0.174-10.565-3.514-12.237c-10.131-4.595-16.847,6.632-18.866,16.341
	c-1.786,8.585-1.886,15.249-0.985,23.615c0.271,2.516-1.274,8.166,0.04,10.184C156.313,125.435,168.319,120.611,174.5,118.326z"/>
<path style="fill:#B3B3B3;stroke:#000000;stroke-miterlimit:10;" d="M16.024,24.577c2.315-4.031,2.64-2.136,4.251-2.75
	c2.358-0.899,3.904-0.498,6.5-0.1c4.22,0.646,7.836,0.478,12.074,1.281c6.215,1.176,9.32,3.328,14.426,5.494
	c4.558,1.933,10.121,2.041,14.919,3.381c9.889,2.761,20.03,6.861,30.694,6.477c12.497-0.45,25.971-1.331,38.242-4.333
	c6.94-1.698,13.245-1.656,20.265-2.034c3.528-0.19,6.963-1.416,10.465-1.436c2.936-0.017,1.607,2.669,1.493,5.003
	c-0.295,6.051-2.816,9.751-8.034,12.71c-12.888,7.309-32.781,14.459-48.083,13.408c-15.345-1.054-30.666-7.891-44.054-15.051
	c-14.223-7.607-30.722-8.283-45.903-12.927C18.403,32.208,18.203,29.174,16.024,24.577z"/>
<path style="fill:#B3B3B3;stroke:#000000;stroke-miterlimit:10;" d="M166.515,34.46c-29.164,3.499-57.872,11.243-87.786,3.635
	c-12.907-3.283-25.818-6.928-38.637-11.783c-8.289-3.139-15.318-2.82-23.504-1.159c-1.14,0.312,3.089,36.894,3.348,39.549
	c0.997,10.205,2.021,20.409,3.065,30.611c0.843,8.245-0.005,19.411,1.725,26.925c0.573,2.489,17.684,7.493,19.995,8.243
	c10.541,3.422,14.133,5.067,21.831,6.577c7.398,1.452,17.565,2.773,24.988,2.84c13.866,0.126,27.763,0.249,41.399-1.928
	c5.443-0.869,18.775-5.925,23.773-8.879c6.03-3.563,5.503-3.227,11.643-6.43c6.517-3.399,7.821-3.004,6.393-15.945
	c-1.404-12.725-3.26-25.392-4.74-38.108C168.602,56.527,164.922,40.58,166.515,34.46z M53.158,69.113
	c-0.333,1.123-0.813,2.157-1.501,2.751c-0.515,0.444-1.118,0.619-1.714,0.772c-3.628,0.93-7.561,1.177-11.105-1.413
	c-3.544-2.591-6.469-8.778-5.797-14.443c0.185-1.565,0.622-2.985,1.076-4.366c0.947-2.875,2.085-5.795,3.966-7.14
	c2.606-1.864,5.937-0.184,8.605,2.415c2.377,2.315,4.541,5.435,5.857,9.292C53.86,60.837,54.234,65.482,53.158,69.113z"/>
<path style="fill:#CCCCCC;" d="M151.167,43.953c-4.152-0.652-8.958,3.521-12.878,4.891c-5.489,1.918-10.642,1.882-16.363,2.061
	c-13.242,0.412-26.651-1.148-39.699-0.389c5.477,0.84,10.327,3.385,15.895,4.424c10.259,1.914,20.61,4.618,31.095,4.159
	C135.155,58.839,156.438,53.462,151.167,43.953z"/>
<path style="fill:#603212;stroke:#000000;stroke-miterlimit:10;" d="M264.004,51.511c1.768-0.988,5.781-3.943,7.211-6.465
	c1.206-2.128,2.602-8.63,3.385-10.813c1.944-5.417-3.968-13.452-6.829-17.77c-2.137-3.226-6.741-7.953-10.813-7.644
	c-2.699,0.205-5.314,1.463-7.833,2.352c-3.333,1.177-6.479,1.124-9.608,2.585c-6.974,3.255-14.193,4.09-21.525,6.335
	c-6.814,2.087-13.838,2.8-20.109,5.828c-3.918,1.892-8.558,2.698-12.849,2.13c-3.16-0.419-5.741-1.215-8.762-0.847
	c-5.809,0.709-8.668,1.776-10.312,7.714c-1.018,3.678,0.058,6.346,2.707,9.052c4.959,5.064,13.099,8.225,19.939,9.638
	c6.754,1.395,14.006,0.372,20.859,1.003c3.847,0.355,7.582,1.221,11.388,1.781c4.822,0.709,10.842,1.026,15.571-0.289
	c4.317-1.201,8.421-2.196,12.859-2.781C254.847,52.589,259.546,54.002,264.004,51.511z"/>
<path style="fill:#783F17;stroke:#000000;stroke-miterlimit:10;" d="M247.586,57.596c-5.824,1.02-11.678,1.832-17.549,2.497
	c-13.348,1.511-28.993,2.043-41.796,6.298c-5.969,1.984-15.105,18.295-21.184,6.763c-0.702-7.599-1.404-15.198-2.105-22.797
	c-0.49-5.31-5.199-14.457,2.943-14.942c8.603-0.513,17.255,0.271,25.927-0.495c4.816-0.425,8.542-0.503,13.195-2.137
	c7.043-2.472,13.402-4.226,20.586-5.557c8.296-1.536,29.352-16.655,33.093-1.895c0.795,3.139,1.488,6.348,2.985,9.219
	c0.341,0.653,0.722,1.287,0.997,1.97c0.802,1.997,1.624,3.491,2.668,5.259c0.905,1.533,2.374,2.962,2.395,5.008
	c0.033,3.335-5.497,5.151-7.909,5.965C257.213,54.312,252.4,56.753,247.586,57.596z"/>
<path style="fill:none;stroke:#000000;stroke-miterlimit:10;" d="M256.478,16.867c0,0,0.718-3.85,1.1-5.898"/>
<g>
	<path style="fill:#E9A96A;" d="M187.865,52.438c0.334-1.873,0.392-3.502,0.043-5.345c-0.056-0.295-0.137-0.555-0.216-0.805
		c-5.976-2.121-7.337,8.971-3.981,10.971c1.044,0.622,1.974,0.849,2.786,0.781C187.265,56.391,187.497,54.508,187.865,52.438z"/>
	<path style="fill:#E7994D;" d="M188.167,46.477c-0.162-0.074-0.32-0.132-0.476-0.188c0.079,0.25,0.161,0.51,0.216,0.805
		c0.35,1.843,0.291,3.471-0.043,5.345c-0.369,2.07-0.6,3.952-1.368,5.602C190.829,57.678,191.753,48.88,188.167,46.477z"/>
</g>
<g>
	<path style="fill:#E7994D;" d="M221.558,41.099c-0.279-0.229-0.555-0.411-0.829-0.572c-0.947,4.377-0.379,9.824-3.657,13.049
		C221.591,53.353,224.668,44.641,221.558,41.099z"/>
	<path style="fill:#E9A96A;" d="M220.729,40.528c-5.883-3.457-10.454,8.133-7.358,11.303c1.276,1.306,2.535,1.803,3.7,1.746
		C220.35,50.351,219.782,44.905,220.729,40.528z"/>
</g>
<g>
	<path style="fill:#E9A96A;" d="M251.066,38.225c0.156-0.817,0.126-1.68,0.112-2.523c-0.404-0.473-0.869-0.867-1.399-1.142
		c-7.708-2.515-7.959,11.054-3.736,12.97c0.405,0.184,0.788,0.312,1.157,0.412c1.47-1.184,2.502-2.888,2.955-4.834
		C250.528,41.501,250.757,39.847,251.066,38.225z"/>
	<path style="fill:#E7994D;" d="M251.178,35.702c0.014,0.842,0.044,1.705-0.112,2.523c-0.309,1.622-0.538,3.276-0.911,4.884
		c-0.452,1.946-1.485,3.65-2.955,4.834C253.477,49.636,254.584,39.69,251.178,35.702z"/>
</g>
</svg>
