<?xml version="1.0" encoding="iso-8859-1"?>
<!-- Generator: Adobe Illustrator 18.0.0, SVG Export Plug-In . SVG Version: 6.00 Build 0)  -->
<svg version="1.1" xmlns="http://www.w3.org/2000/svg" xmlns:xlink="http://www.w3.org/1999/xlink" x="0px" y="0px"
	 viewBox="0 0 100 100" style="enable-background:new 0 0 100 100;" xml:space="preserve">
<g id="turf-explode">
	<circle cx="55.795" cy="12.538" r="7.423"/>
	<circle cx="90.497" cy="47.24" r="7.423"/>
	<circle cx="70.977" cy="88.448" r="7.423"/>
	<circle cx="11.334" cy="68.928" r="7.423"/>
	<g>
		<path d="M56.171,82.671c-1.144-0.36-2.359,0.282-2.715,1.425c-0.357,1.144,0.282,2.359,1.425,2.715l4.35,1.354
			c0.036-1.506,0.347-2.946,0.901-4.262L56.171,82.671z"/>
		<path d="M12.762,57.264l-0.258-3.091c-1.059,0.314-2.178,0.49-3.338,0.49c-0.33,0-0.655-0.023-0.978-0.05l0.245,2.932
			c0.93-0.237,1.899-0.377,2.902-0.377C11.818,57.168,12.293,57.207,12.762,57.264z"/>
		<path d="M80.362,74.212c0.487-1.094-0.004-2.376-1.099-2.864c-1.094-0.484-2.375,0.003-2.864,1.099l-2.104,4.725
			c1.419,0.418,2.723,1.1,3.865,1.985L80.362,74.212z"/>
		<path d="M24.901,72.937l-2.286-0.712c-0.421,1.439-1.112,2.761-2.012,3.916l3.009,0.937c0.214,0.068,0.432,0.1,0.645,0.1
			c0.925,0,1.781-0.596,2.07-1.525C26.683,74.508,26.045,73.293,24.901,72.937z"/>
		<path d="M41.091,22.574c-0.612-1.031-1.941-1.369-2.972-0.758l-9.387,5.574c-1.03,0.612-1.369,1.942-0.758,2.972
			c0.406,0.683,1.127,1.062,1.867,1.062c0.376,0,0.758-0.098,1.105-0.304l9.387-5.574C41.363,24.935,41.702,23.604,41.091,22.574z"
			/>
		<path d="M45.748,79.426l-10.423-3.245c-1.144-0.362-2.359,0.283-2.715,1.425c-0.356,1.144,0.283,2.359,1.426,2.715l10.423,3.245
			c0.214,0.068,0.432,0.1,0.645,0.1c0.925,0,1.781-0.596,2.07-1.525C47.53,80.998,46.891,79.782,45.748,79.426z"/>
		<path d="M65.524,21.534l6.832,7.303c0.428,0.456,1.005,0.687,1.584,0.687c0.532,0,1.063-0.194,1.482-0.585
			c0.875-0.818,0.92-2.191,0.103-3.065l-7.227-7.725C67.591,19.445,66.645,20.59,65.524,21.534z"/>
		<path d="M80.842,62.475c-0.487,1.094,0.004,2.376,1.099,2.864c0.287,0.127,0.586,0.188,0.881,0.188c0.83,0,1.622-0.48,1.982-1.288
			l2.531-5.683c-1.425-0.399-2.738-1.059-3.89-1.927L80.842,62.475z"/>
		<path d="M85.546,36.587l-2.565-2.741c-0.819-0.876-2.191-0.921-3.065-0.102c-0.875,0.819-0.92,2.191-0.102,3.065l2.179,2.329
			C83.003,38.08,84.206,37.213,85.546,36.587z"/>
		<path d="M19.734,37.778l1.826-1.084c1.03-0.612,1.369-1.942,0.758-2.972c-0.612-1.03-1.943-1.369-2.972-0.758l-2.212,1.314
			C18.205,35.268,19.089,36.453,19.734,37.778z"/>
		<polygon points="88.877,43.321 87.971,44.143 87.283,44.791 		"/>
	</g>
	<circle cx="9.165" cy="42.902" r="7.423"/>
</g>
<g id="Layer_1">
</g>
</svg>
