<?xml version="1.0" encoding="iso-8859-1"?>
<!-- Generator: Adobe Illustrator 18.0.0, SVG Export Plug-In . SVG Version: 6.00 Build 0)  -->
<svg version="1.1" xmlns="http://www.w3.org/2000/svg" xmlns:xlink="http://www.w3.org/1999/xlink" x="0px" y="0px"
	 viewBox="0 0 100 100" style="enable-background:new 0 0 100 100;" xml:space="preserve">
<g id="turf-union">
	<path d="M76.111,36.407l3.838-16.94c0.228-1-0.34-2.01-1.312-2.337L38.462,3.613c-0.669-0.226-1.41-0.08-1.946,0.382L8.109,28.552
		c-0.502,0.435-0.756,1.089-0.678,1.749l4.7,39.609c0.111,0.936,0.859,1.667,1.797,1.756l14.745,1.396
		c3.583,14.489,16.717,24.855,31.784,24.855c18.056,0,32.744-14.689,32.744-32.744C93.202,53.224,86.544,42.104,76.111,36.407z
		 M52.686,33.356c2.948-0.718,6.031-1.022,9.073-0.903c1.104,0.042,1.964,0.972,1.921,2.075c-0.042,1.104-0.924,1.975-2.075,1.922
		c-2.672-0.102-5.383,0.162-7.972,0.792c-0.159,0.039-0.318,0.057-0.476,0.057c-0.9,0-1.719-0.613-1.941-1.527
		C50.955,34.7,51.612,33.618,52.686,33.356z M28.449,58.242c0.644-2.986,1.705-5.867,3.155-8.563
		c0.523-0.973,1.736-1.338,2.708-0.814c0.973,0.523,1.337,1.736,0.814,2.709c-1.272,2.364-2.203,4.892-2.768,7.51
		c-0.202,0.938-1.031,1.579-1.953,1.579c-0.14,0-0.281-0.015-0.423-0.045C28.903,60.386,28.216,59.321,28.449,58.242z
		 M34.293,73.584c-0.063,0-0.127-0.003-0.191-0.009l-3.982-0.377c-0.879-0.083-1.6-0.734-1.773-1.601
		c-0.277-1.389-0.465-2.808-0.561-4.22c-0.074-1.103,0.759-2.056,1.861-2.13c1.114-0.096,2.056,0.76,2.13,1.86
		c0.05,0.751,0.131,1.504,0.241,2.252l2.46,0.232c1.1,0.104,1.907,1.08,1.803,2.18C36.184,72.808,35.313,73.584,34.293,73.584z
		 M38.434,45.721c-0.503,0-1.007-0.189-1.396-0.568c-0.791-0.771-0.807-2.037-0.036-2.828c2.136-2.191,4.561-4.071,7.209-5.587
		c0.958-0.549,2.181-0.217,2.729,0.742c0.549,0.958,0.217,2.18-0.742,2.729c-2.325,1.332-4.456,2.983-6.332,4.908
		C39.474,45.519,38.954,45.721,38.434,45.721z M52.393,75.297c-0.062,0-0.126-0.003-0.19-0.009l-9.05-0.856
		c-1.1-0.104-1.907-1.08-1.803-2.18s1.081-1.903,2.18-1.803l9.05,0.856c1.1,0.104,1.906,1.08,1.803,2.18
		C54.284,74.521,53.412,75.297,52.393,75.297z M68.257,71.071l-0.884,3.9c-0.208,0.918-1.023,1.558-1.948,1.558
		c-0.063,0-0.126-0.003-0.189-0.009l-3.982-0.376c-1.101-0.104-1.907-1.079-1.804-2.179s1.074-1.91,2.179-1.804l2.232,0.211
		l0.496-2.187c0.244-1.076,1.312-1.756,2.393-1.508C67.826,68.923,68.501,69.993,68.257,71.071z M72.676,51.57l-2.21,9.75
		c-0.21,0.928-1.035,1.558-1.948,1.558c-0.146,0-0.295-0.016-0.444-0.05c-1.077-0.244-1.752-1.315-1.508-2.393l2.21-9.75
		c0.243-1.078,1.312-1.751,2.393-1.509C72.245,49.421,72.92,50.493,72.676,51.57z M75.769,37.918l-0.884,3.901
		c-0.21,0.928-1.035,1.559-1.948,1.559c-0.146,0-0.295-0.016-0.443-0.05c-1.078-0.244-1.753-1.315-1.509-2.393l0.522-2.306
		c-0.665-0.277-1.341-0.53-2.021-0.754c-1.049-0.347-1.618-1.479-1.271-2.527c0.346-1.048,1.479-1.617,2.526-1.271
		c1.343,0.444,2.67,0.982,3.945,1.598C75.526,36.08,75.975,37.01,75.769,37.918z"/>
</g>
<g id="Layer_1">
</g>
</svg>
