<?xml version="1.0" encoding="iso-8859-1"?>
<!-- Generator: Adobe Illustrator 18.0.0, SVG Export Plug-In . SVG Version: 6.00 Build 0)  -->
<svg version="1.1" xmlns="http://www.w3.org/2000/svg" xmlns:xlink="http://www.w3.org/1999/xlink" x="0px" y="0px"
	 viewBox="0 0 100 100" style="enable-background:new 0 0 100 100;" xml:space="preserve">
<g id="turf-buffer">
	<path d="M26.422,99h-0.063c-2.205,0-4.384-0.496-6.475-1.25c-0.806-0.291-1.595-0.693-2.345-1.085
		c-1.224-0.639-1.699-2.177-1.061-3.401c0.638-1.224,2.149-1.713,3.373-1.075c0.553,0.288,1.135,0.537,1.732,0.752
		c1.545,0.558,3.152,0.837,4.777,0.837c1.381,0,2.532,1.23,2.532,2.611S27.803,99,26.422,99z M34.081,96.862
		c-0.898,0-1.766-0.486-2.214-1.336c-0.644-1.222-0.175-2.733,1.047-3.377c2.003-1.055,3.737-2.591,5.014-4.441
		c0.784-1.137,2.339-1.422,3.478-0.638c1.136,0.784,1.422,2.341,0.638,3.478c-1.733,2.512-4.084,4.596-6.799,6.025
		C34.872,96.769,34.474,96.862,34.081,96.862z M12.774,91.677c-0.792,0-1.569-0.374-2.055-1.073
		c-1.747-2.512-2.876-5.441-3.266-8.471c-0.176-1.369,0.791-2.622,2.16-2.799c1.374-0.175,2.623,0.792,2.799,2.16
		c0.288,2.236,1.123,4.399,2.413,6.256c0.788,1.134,0.508,2.691-0.626,3.479C13.764,91.532,13.267,91.677,12.774,91.677z
		 M43.189,84.362c-0.282,0-0.569-0.049-0.85-0.149c-1.298-0.47-1.971-1.902-1.501-3.201l2.708-7.495
		c0.469-1.298,1.902-1.967,3.201-1.502c1.298,0.47,1.971,1.902,1.501,3.201l-2.708,7.495C45.172,83.729,44.212,84.362,43.189,84.362
		z M10.828,76.474c-0.282,0-0.569-0.049-0.85-0.149c-1.298-0.47-1.971-1.902-1.501-3.201l2.708-7.495
		c0.469-1.298,1.902-1.967,3.201-1.502c1.298,0.47,1.971,1.902,1.501,3.201l-2.708,7.495C12.811,75.84,11.851,76.474,10.828,76.474z
		 M48.605,69.372c-0.282,0-0.569-0.049-0.85-0.149c-1.298-0.47-1.971-1.902-1.501-3.201l2.708-7.495
		c0.469-1.298,1.904-1.967,3.201-1.502c1.299,0.47,1.971,1.902,1.502,3.201l-2.709,7.495C50.588,68.738,49.628,69.372,48.605,69.372
		z M16.244,61.483c-0.282,0-0.569-0.049-0.85-0.149c-1.298-0.47-1.971-1.902-1.501-3.201l2.708-7.495
		c0.469-1.299,1.902-1.97,3.201-1.501c1.298,0.469,1.971,1.902,1.501,3.201l-2.708,7.495C18.228,60.85,17.267,61.483,16.244,61.483z
		 M54.699,54.954c-0.876,0-1.726-0.461-2.184-1.279c-0.674-1.205-0.244-2.729,0.961-3.403l6.955-3.89
		c1.207-0.674,2.729-0.243,3.402,0.962c0.674,1.205,0.244,2.728-0.961,3.402l-6.955,3.89C55.531,54.852,55.112,54.954,54.699,54.954
		z M68.609,47.174c-0.876,0-1.726-0.461-2.184-1.28c-0.674-1.205-0.244-2.729,0.961-3.402l6.955-3.891
		c1.207-0.675,2.729-0.244,3.402,0.961s0.244,2.729-0.961,3.402l-6.955,3.891C69.441,47.072,69.022,47.174,68.609,47.174z
		 M21.661,46.493c-0.282,0-0.569-0.048-0.85-0.149c-1.298-0.469-1.971-1.902-1.501-3.201l2.708-7.495
		c0.469-1.299,1.903-1.972,3.201-1.501c1.298,0.469,1.971,1.902,1.501,3.201l-2.708,7.495C23.644,45.86,22.684,46.493,21.661,46.493
		z M82.521,39.394c-0.876,0-1.726-0.461-2.184-1.28c-0.674-1.205-0.244-2.729,0.961-3.402l3.437-1.922
		c1.002-0.561,1.93-1.238,2.759-2.014c1.007-0.946,2.59-0.893,3.533,0.115c0.944,1.008,0.893,2.59-0.115,3.534
		c-1.124,1.053-2.381,1.972-3.736,2.729l-3.436,1.922C83.353,39.291,82.934,39.394,82.521,39.394z M28.542,32.297
		c-0.649,0-1.298-0.251-1.788-0.752c-0.965-0.987-0.947-2.57,0.04-3.536c1.201-1.174,2.554-2.186,4.021-3.005l3.138-1.755
		c1.203-0.675,2.728-0.244,3.402,0.961s0.244,2.728-0.961,3.402l-3.138,1.755c-1.082,0.605-2.08,1.351-2.965,2.217
		C29.804,32.06,29.173,32.297,28.542,32.297z M93.503,28.485c-0.273,0-0.551-0.045-0.824-0.14c-1.303-0.455-1.991-1.88-1.536-3.184
		c0.524-1.504,0.791-3.071,0.791-4.656c0-0.673-0.049-1.351-0.146-2.015c-0.199-1.366,0.747-2.635,2.113-2.834
		c1.364-0.193,2.636,0.748,2.834,2.114c0.132,0.902,0.198,1.822,0.198,2.736c0,2.148-0.36,4.269-1.07,6.304
		C95.504,27.839,94.536,28.485,93.503,28.485z M42.131,24.041c-0.876,0-1.726-0.461-2.185-1.28
		c-0.674-1.205-0.243-2.728,0.962-3.402l6.955-3.89c1.204-0.673,2.728-0.243,3.402,0.962s0.244,2.728-0.961,3.402l-6.955,3.89
		C42.963,23.938,42.544,24.041,42.131,24.041z M56.041,16.26c-0.876,0-1.726-0.461-2.184-1.28c-0.674-1.205-0.244-2.728,0.961-3.402
		l6.955-3.89c1.208-0.674,2.729-0.243,3.402,0.962s0.244,2.728-0.961,3.402l-6.955,3.89C56.873,16.158,56.454,16.26,56.041,16.26z
		 M91.293,13.316c-0.775,0-1.54-0.36-2.029-1.037c-1.319-1.828-3.084-3.327-5.104-4.333c-1.235-0.616-1.737-2.118-1.121-3.353
		c0.616-1.237,2.118-1.738,3.354-1.122c2.74,1.367,5.135,3.401,6.926,5.882c0.808,1.12,0.556,2.682-0.564,3.49
		C92.312,13.163,91.8,13.316,91.293,13.316z M69.952,8.48c-0.886,0-1.743-0.471-2.197-1.304c-0.66-1.212-0.214-2.73,0.998-3.392
		c2.694-1.469,5.731-2.272,8.784-2.324c1.409-0.029,2.519,1.077,2.542,2.458c0.022,1.38-1.077,2.519-2.458,2.542
		c-2.28,0.039-4.458,0.615-6.474,1.714C70.767,8.382,70.356,8.48,69.952,8.48z"/>
	<path d="M26.359,82.213c-0.282,0-0.569-0.049-0.85-0.149c-1.298-0.47-1.971-1.902-1.501-3.201l14.075-38.952l38.569-21.573
		c1.206-0.674,2.728-0.244,3.402,0.962c0.674,1.205,0.244,2.728-0.961,3.402L42.152,43.364L28.71,80.562
		C28.343,81.579,27.383,82.213,26.359,82.213z"/>
</g>
<g id="Layer_1">
</g>
</svg>
