<?xml version="1.0" encoding="iso-8859-1"?>
<!-- Generator: Adobe Illustrator 18.0.0, SVG Export Plug-In . SVG Version: 6.00 Build 0)  -->
<svg version="1.1" xmlns="http://www.w3.org/2000/svg" xmlns:xlink="http://www.w3.org/1999/xlink" x="0px" y="0px"
	 viewBox="0 0 100 100" style="enable-background:new 0 0 100 100;" xml:space="preserve">
<g id="turf-triangle-grid">
	<circle cx="88.472" cy="11.528" r="5.824"/>
	<circle cx="50" cy="50" r="5.824"/>
	<circle cx="88.472" cy="88.472" r="5.824"/>
	<circle cx="11.528" cy="88.472" r="5.824"/>
	<circle cx="11.528" cy="11.528" r="5.824"/>
	<path d="M52,88h27v0.236c0-1.986,0.421-3.598,1.438-5.146L55.446,58.17c-1.029,0.688-2.194,1.188-3.446,1.448V88z"/>
	<path d="M19.606,83.091C20.623,84.638,21,86.249,21,88.236V88h27V59.618c-1.215-0.252-2.345-0.734-3.351-1.391L19.606,83.091z"/>
	<path d="M16.909,19.606C15.362,20.623,13.751,21,11.764,21H12v27h28.382c0.252-1.215,0.734-2.345,1.391-3.351L16.909,19.606z"/>
	<path d="M12,52v27h-0.236c1.986,0,3.598,0.421,5.145,1.438l24.92-24.993c-0.688-1.029-1.188-2.194-1.448-3.446H12z"/>
	<path d="M80.394,16.91C79.377,15.362,79,13.751,79,11.764V12H52v28.382c1.215,0.252,2.345,0.734,3.351,1.391L80.394,16.91z"/>
	<path d="M48,12H21v-0.236c0,1.986-0.421,3.598-1.438,5.145l24.993,24.92c1.029-0.688,2.194-1.188,3.446-1.448V12z"/>
	<path d="M88,48V21h0.236c-1.986,0-3.598-0.421-5.145-1.438L58.17,44.554c0.688,1.029,1.188,2.194,1.448,3.446H88z"/>
	<path d="M88,52H59.618c-0.252,1.215-0.734,2.345-1.391,3.351L83.09,80.394C84.638,79.377,86.249,79,88.236,79H88V52z"/>
</g>
<g id="Layer_1">
</g>
</svg>
