<?xml version="1.0" encoding="iso-8859-1"?>
<!-- Generator: Adobe Illustrator 18.0.0, SVG Export Plug-In . SVG Version: 6.00 Build 0)  -->
<svg version="1.1" xmlns="http://www.w3.org/2000/svg" xmlns:xlink="http://www.w3.org/1999/xlink" x="0px" y="0px"
	 viewBox="0 0 100 100" style="enable-background:new 0 0 100 100;" xml:space="preserve">
<g id="turf-intersect">
	<path d="M76.107,36.425l3.842-16.958c0.228-1-0.34-2.01-1.312-2.337L38.462,3.613c-0.669-0.226-1.41-0.08-1.946,0.382L8.109,28.552
		c-0.502,0.435-0.756,1.089-0.678,1.749l4.7,39.609c0.111,0.936,0.859,1.667,1.797,1.756l14.747,1.395
		c3.584,14.489,16.715,24.856,31.783,24.856c18.056,0,32.744-14.689,32.744-32.744C93.202,53.226,86.537,42.123,76.107,36.425z
		 M15.913,67.836l-4.385-36.952L38.269,7.769l37.38,12.577l-3.247,14.33c-0.246-0.097-0.496-0.182-0.743-0.272
		c-0.171-0.062-0.34-0.128-0.512-0.187c-0.51-0.177-1.023-0.342-1.539-0.492c-0.025-0.007-0.05-0.016-0.075-0.023
		c-0.544-0.157-1.093-0.297-1.644-0.425c-0.167-0.039-0.335-0.071-0.502-0.107c-0.387-0.083-0.776-0.162-1.166-0.231
		c-0.202-0.036-0.404-0.068-0.607-0.099c-0.366-0.058-0.733-0.109-1.102-0.155c-0.206-0.025-0.411-0.05-0.618-0.072
		c-0.39-0.04-0.781-0.071-1.173-0.098c-0.181-0.012-0.361-0.028-0.542-0.037c-0.571-0.029-1.144-0.047-1.721-0.047
		c-18.056,0-32.745,14.689-32.745,32.745c0,0.591,0.02,1.182,0.052,1.774c0.01,0.188,0.028,0.375,0.042,0.562
		c0.029,0.406,0.062,0.811,0.106,1.216c0.009,0.083,0.012,0.166,0.022,0.249L15.913,67.836z M60.458,93.917
		c-12.75,0-23.921-8.453-27.528-20.453l32.304,3.056c0.063,0.006,0.127,0.009,0.19,0.009c0.034,0,0.067-0.007,0.102-0.009
		c0.047-0.003,0.092-0.006,0.138-0.012c0.078-0.01,0.155-0.024,0.231-0.043c0.032-0.008,0.065-0.016,0.096-0.025
		c0.088-0.026,0.172-0.059,0.255-0.096c0.02-0.009,0.039-0.017,0.059-0.026c0.09-0.045,0.176-0.096,0.258-0.154
		c0.012-0.008,0.024-0.016,0.036-0.024c0.083-0.061,0.161-0.129,0.234-0.202c0.01-0.01,0.021-0.019,0.03-0.029
		c0.07-0.073,0.132-0.151,0.191-0.234c0.011-0.015,0.023-0.028,0.033-0.043c0.053-0.081,0.099-0.167,0.14-0.256
		c0.01-0.021,0.022-0.039,0.031-0.06c0.047-0.11,0.086-0.224,0.113-0.345l7.814-34.486c8.589,5.149,14.015,14.58,14.015,24.687
		C89.202,81.022,76.308,93.917,60.458,93.917z"/>
</g>
<g id="Layer_1">
</g>
</svg>
