<?xml version="1.0" encoding="iso-8859-1"?>
<!-- Generator: Adobe Illustrator 18.0.0, SVG Export Plug-In . SVG Version: 6.00 Build 0)  -->
<svg version="1.1" xmlns="http://www.w3.org/2000/svg" xmlns:xlink="http://www.w3.org/1999/xlink" x="0px" y="0px"
	 viewBox="0 0 100 100" style="enable-background:new 0 0 100 100;" xml:space="preserve">
<g id="turf-concave">
	<circle cx="13.162" cy="54.683" r="5.824"/>
	<circle cx="51.116" cy="15.612" r="5.824"/>
	<circle cx="87.954" cy="83.706" r="5.824"/>
	<circle cx="50" cy="50.218" r="5.824"/>
	<path d="M73.939,80.269c-0.241,0-0.485-0.044-0.724-0.137l-9.353-3.629c-1.029-0.399-1.54-1.558-1.141-2.588
		c0.398-1.03,1.56-1.542,2.588-1.141l9.353,3.629c1.029,0.399,1.54,1.558,1.141,2.588C75.497,79.783,74.74,80.269,73.939,80.269z"/>
	<path d="M55.234,73.01c-0.241,0-0.485-0.044-0.724-0.137l-9.353-3.629c-1.03-0.399-1.541-1.558-1.141-2.588
		c0.4-1.029,1.561-1.541,2.588-1.141l9.353,3.629c1.029,0.399,1.54,1.558,1.141,2.588C56.792,72.524,56.035,73.01,55.234,73.01z"/>
	<path d="M36.528,65.751c-0.241,0-0.485-0.044-0.723-0.137l-9.353-3.629c-1.03-0.399-1.541-1.558-1.141-2.588
		c0.4-1.03,1.56-1.542,2.588-1.141l9.353,3.629c1.03,0.399,1.541,1.558,1.141,2.588C38.085,65.266,37.329,65.751,36.528,65.751z"/>
	<path d="M22.843,46.717c-0.502,0-1.005-0.188-1.394-0.565c-0.792-0.77-0.811-2.036-0.041-2.828l6.197-6.379
		c0.771-0.792,2.037-0.81,2.828-0.041c0.792,0.77,0.811,2.036,0.041,2.828l-6.197,6.379C23.886,46.514,23.365,46.717,22.843,46.717z
		"/>
	<path d="M35.238,33.958c-0.502,0-1.005-0.188-1.394-0.565c-0.792-0.77-0.811-2.036-0.041-2.828L40,24.185
		c0.771-0.792,2.037-0.81,2.828-0.041c0.792,0.77,0.811,2.036,0.041,2.828l-6.197,6.379C36.28,33.755,35.759,33.958,35.238,33.958z"
		/>
	<path d="M50.427,39.017c-0.021,0-0.043,0-0.065-0.001c-1.104-0.036-1.97-0.959-1.935-2.063l0.265-8.204
		c0.036-1.104,0.931-1.971,2.063-1.935c1.104,0.036,1.97,0.959,1.935,2.063l-0.265,8.204C52.39,38.163,51.502,39.017,50.427,39.017z
		"/>
	<path d="M78.113,77.023c-0.47,0-0.941-0.165-1.322-0.5l-6.092-5.374c-0.828-0.73-0.907-1.995-0.177-2.823
		c0.731-0.828,1.993-0.906,2.823-0.177l6.092,5.374c0.828,0.73,0.907,1.995,0.177,2.823C79.219,76.795,78.667,77.023,78.113,77.023z
		"/>
	<path d="M65.931,66.274c-0.47,0-0.942-0.165-1.322-0.5L58.518,60.4c-0.828-0.731-0.907-1.995-0.177-2.823
		c0.731-0.828,1.996-0.907,2.823-0.177l6.091,5.374c0.828,0.731,0.907,1.995,0.177,2.823C67.036,66.046,66.484,66.274,65.931,66.274
		z"/>
</g>
<g id="Layer_1">
</g>
</svg>
