<svg xmlns="http://www.w3.org/2000/svg" viewBox="0 0 100 100"><circle cx="49.331" cy="50.493" r="6.845"/><path d="M85.33 23.338c-4.876 0-8.844-3.968-8.844-8.845 0-4.877 3.968-8.845 8.845-8.845s8.85 3.968 8.85 8.845c0 4.877-3.97 8.845-8.84 8.845zm0-13.69c-2.67 0-4.844 2.173-4.844 4.845 0 2.67 2.173 4.845 4.845 4.845s4.85-2.173 4.85-4.845c0-2.672-2.17-4.845-4.84-4.845zm-71 84.69c-4.876 0-8.844-3.968-8.844-8.845s3.968-8.845 8.845-8.845c4.88 0 8.85 3.968 8.85 8.845s-3.97 8.845-8.84 8.845zm0-13.69c-2.67 0-4.844 2.173-4.844 4.845s2.173 4.845 4.845 4.845c2.68 0 4.85-2.173 4.85-4.845s-2.17-4.845-4.84-4.845z"/></svg>